<?xml version="1.0" encoding="utf-8"?>
<!-- Generator: Adobe Illustrator 23.0.0, SVG Export Plug-In . SVG Version: 6.00 Build 0)  -->
<svg version="1.1" id="_x31_6" xmlns="http://www.w3.org/2000/svg" xmlns:xlink="http://www.w3.org/1999/xlink" x="0px" y="0px"
	 viewBox="0 0 99.04 99.04" style="enable-background:new 0 0 99.04 99.04;" xml:space="preserve">
<style type="text/css">
	.st0{fill:#FFFFFF;}
	.st1{fill-rule:evenodd;clip-rule:evenodd;fill:#FFFFFF;}
	.st2{fill:#262626;}
	.st3{fill-rule:evenodd;clip-rule:evenodd;fill:#262626;}
</style>
<path class="st2" d="M49.52,0C63.2,0,75.57,5.54,84.53,14.5c8.97,8.97,14.5,21.33,14.5,35.01c0,13.68-5.54,26.05-14.5,35.01
	C75.57,93.5,63.2,99.04,49.52,99.04c-13.68,0-26.05-5.54-35.01-14.51C5.54,75.57,0,63.2,0,49.52C0,35.84,5.54,23.47,14.51,14.5
	C23.47,5.54,35.84,0,49.52,0L49.52,0z M81.79,17.25C73.54,8.97,62.13,3.87,49.52,3.87c-12.61,0-24.02,5.1-32.27,13.38
	C8.97,25.5,3.87,36.91,3.87,49.52c0,12.61,5.1,24.02,13.38,32.27c8.25,8.28,19.66,13.38,32.27,13.38c12.61,0,24.02-5.1,32.27-13.38
	c8.28-8.25,13.38-19.66,13.38-32.27C95.17,36.91,90.07,25.5,81.79,17.25L81.79,17.25z"/>
<path class="st2" d="M49.64,67.63c-5.61-0.19-11.23-0.36-16.84-0.58c-0.98-0.04-1.96-0.18-2.92-0.38c-2.19-0.45-3.92-1.61-4.66-3.77
	c-0.53-1.55-0.93-3.18-1.08-4.8c-0.59-6.18-0.57-12.38,0.11-18.56c0.12-1.05,0.39-2.11,0.73-3.11c0.93-2.73,2.91-4.29,5.75-4.47
	c4.63-0.29,9.26-0.53,13.9-0.55c6.78-0.03,13.55,0.16,20.33,0.27c1.16,0.02,2.32,0.12,3.46,0.27c2.81,0.38,4.74,1.85,5.71,4.58
	c0.63,1.79,0.81,3.66,0.93,5.52c0.39,5.75,0.39,11.5-0.25,17.23c-0.11,1.01-0.38,2.02-0.69,2.99c-0.95,2.99-3.12,4.49-6.17,4.68
	c-3.92,0.24-7.84,0.38-11.76,0.5c-2.18,0.07-4.37,0.01-6.55,0.01C49.64,67.53,49.64,67.58,49.64,67.63z M44.22,56.22
	c1.32-0.27,12.39-6.27,13.18-7.11c-1.36-1.03-12.13-6.53-13.18-6.7C44.22,47.01,44.22,51.61,44.22,56.22z"/>
</svg>
