<?xml version="1.0" encoding="utf-8"?>
<!-- Generator: Adobe Illustrator 23.0.0, SVG Export Plug-In . SVG Version: 6.00 Build 0)  -->
<svg version="1.1" id="_x31_6" xmlns="http://www.w3.org/2000/svg" xmlns:xlink="http://www.w3.org/1999/xlink" x="0px" y="0px"
	 viewBox="0 0 99.04 99.04" style="enable-background:new 0 0 99.04 99.04;" xml:space="preserve">
<style type="text/css">
	.st0{fill:#FFFFFF;}
	.st1{fill-rule:evenodd;clip-rule:evenodd;fill:#FFFFFF;}
	.st2{fill:#262626;}
	.st3{fill-rule:evenodd;clip-rule:evenodd;fill:#262626;}
</style>
<path class="st2" d="M49.52,0C63.2,0,75.57,5.54,84.53,14.5c8.96,8.97,14.5,21.33,14.5,35.01c0,13.68-5.54,26.05-14.5,35.01
	c-8.97,8.97-21.33,14.5-35.01,14.5S23.47,93.5,14.5,84.53C5.54,75.56,0,63.2,0,49.52C0,35.84,5.54,23.47,14.5,14.5
	C23.47,5.54,35.83,0,49.52,0L49.52,0z M81.79,17.25C73.54,8.99,62.13,3.87,49.52,3.87S25.5,8.99,17.25,17.25
	C8.97,25.5,3.87,36.91,3.87,49.52c0,12.61,5.1,24.02,13.38,32.3c8.25,8.25,19.66,13.35,32.27,13.35s24.02-5.1,32.27-13.35
	c8.28-8.28,13.38-19.69,13.38-32.3C95.17,36.91,90.07,25.5,81.79,17.25L81.79,17.25z"/>
<path class="st2" d="M43.49,39.15c3.22,0,6.37,0,9.59,0c0.39,1.34-0.03,2.75,0.31,4.21c0.2-0.25,0.33-0.4,0.44-0.55
	c1.56-2.15,3.65-3.53,6.21-4.14c2.8-0.67,5.61-0.54,8.33,0.39c3.08,1.05,5,3.26,6,6.31c0.69,2.09,1,4.25,1.02,6.45
	c0.05,6.43,0.04,12.86,0.06,19.29c0,0.23-0.05,0.46-0.1,0.85c-3.34,0.09-6.65,0.02-10.09,0.03c-0.04-0.58-0.11-1.07-0.11-1.57
	c-0.01-4.88,0-9.77-0.03-14.65c-0.01-1.38-0.11-2.78-0.29-4.15c-0.1-0.73-0.4-1.46-0.74-2.12c-0.54-1.03-1.42-1.69-2.56-1.97
	c-1.42-0.34-2.84-0.3-4.22,0.19c-1.35,0.47-2.26,1.43-2.82,2.74c-0.65,1.53-0.82,3.15-0.83,4.78c-0.02,4.72-0.01,9.45-0.01,14.17
	c0,0.79,0,1.58,0,2.54c-3.41,0.07-6.72,0.04-10.01,0C43.33,71.02,43.21,41.69,43.49,39.15z"/>
<path class="st2" d="M36.76,71.9c-3.29,0-6.6,0-9.9,0c-0.28-1.03-0.31-31.47-0.03-32.76c3.29,0,6.6,0,9.9,0
	C36.99,40.12,37.02,70.68,36.76,71.9z"/>
<path class="st2" d="M37.72,28.71c-0.02,3.34-2.65,5.9-6.03,5.88c-3.22-0.02-5.9-2.74-5.88-5.95c0.02-3.28,2.7-5.89,6.06-5.91
	C35.01,22.71,37.74,25.5,37.72,28.71z"/>
</svg>
