<?xml version="1.0" encoding="utf-8"?>
<!-- Generator: Adobe Illustrator 23.0.0, SVG Export Plug-In . SVG Version: 6.00 Build 0)  -->
<svg version="1.1" id="_x31_6" xmlns="http://www.w3.org/2000/svg" xmlns:xlink="http://www.w3.org/1999/xlink" x="0px" y="0px"
	 viewBox="0 0 99.04 99.04" style="enable-background:new 0 0 99.04 99.04;" xml:space="preserve">
<style type="text/css">
	.st0{fill:#FFFFFF;}
	.st1{fill-rule:evenodd;clip-rule:evenodd;fill:#FFFFFF;}
	.st2{fill:#262626;}
	.st3{fill-rule:evenodd;clip-rule:evenodd;fill:#262626;}
</style>
<path class="st0" d="M49.52,0C63.2,0,75.57,5.54,84.53,14.5c8.97,8.97,14.5,21.33,14.5,35.01c0,13.68-5.54,26.05-14.5,35.01
	c-8.97,8.97-21.33,14.5-35.01,14.5c-13.68,0-26.05-5.54-35.01-14.5C5.54,75.56,0,63.2,0,49.52C0,35.84,5.54,23.47,14.5,14.5
	C23.47,5.54,35.84,0,49.52,0L49.52,0z M81.82,17.25C73.54,8.99,62.13,3.87,49.52,3.87c-12.61,0-24.02,5.13-32.27,13.38
	C8.99,25.5,3.87,36.91,3.87,49.52c0,12.61,5.13,24.02,13.38,32.3c8.25,8.25,19.66,13.35,32.27,13.35c12.61,0,24.02-5.1,32.3-13.35
	c8.25-8.28,13.35-19.69,13.35-32.3C95.17,36.91,90.07,25.5,81.82,17.25L81.82,17.25z"/>
<path class="st1" d="M53.3,39.4v-4.06c0-1.95,1.29-2.41,2.22-2.41c0.9,0,5.68,0,5.68,0v-8.66h-7.81c-8.69,0-10.64,6.42-10.64,10.58
	v4.55H37.7v6.11v4h5.1c0,11.49,0,25.28,0,25.28h10.12c0,0,0-13.98,0-25.28h7.48l0.33-3.98l0.6-6.14H53.3z"/>
</svg>
