<?xml version="1.0" encoding="utf-8"?>
<!-- Generator: Adobe Illustrator 23.0.0, SVG Export Plug-In . SVG Version: 6.00 Build 0)  -->
<svg version="1.1" id="_x31_6" xmlns="http://www.w3.org/2000/svg" xmlns:xlink="http://www.w3.org/1999/xlink" x="0px" y="0px"
	 viewBox="0 0 99.04 99.04" style="enable-background:new 0 0 99.04 99.04;" xml:space="preserve">
<style type="text/css">
	.st0{fill:#FFFFFF;}
	.st1{fill-rule:evenodd;clip-rule:evenodd;fill:#FFFFFF;}
	.st2{fill:#262626;}
	.st3{fill-rule:evenodd;clip-rule:evenodd;fill:#262626;}
</style>
<path class="st0" d="M49.52,0C63.2,0,75.57,5.54,84.53,14.5c8.96,8.97,14.5,21.33,14.5,35.01c0,13.68-5.54,26.05-14.5,35.01
	c-8.97,8.97-21.33,14.5-35.01,14.5S23.47,93.5,14.5,84.53C5.54,75.56,0,63.2,0,49.52C0,35.84,5.54,23.47,14.5,14.5
	C23.47,5.54,35.83,0,49.52,0L49.52,0z M81.79,17.25C73.54,8.99,62.13,3.87,49.52,3.87S25.5,8.99,17.25,17.25
	C8.97,25.5,3.87,36.91,3.87,49.52c0,12.61,5.1,24.02,13.38,32.3c8.25,8.25,19.66,13.35,32.27,13.35s24.02-5.1,32.27-13.35
	c8.28-8.28,13.38-19.69,13.38-32.3C95.17,36.91,90.07,25.5,81.79,17.25L81.79,17.25z"/>
<g>
	<path class="st0" d="M49.38,74.44c-3.63-0.07-7.26-0.08-10.88-0.26c-1.52-0.08-3.07-0.38-4.53-0.84
		c-4.94-1.55-7.88-5.01-8.89-10.03c-0.42-2.1-0.55-4.29-0.57-6.44c-0.05-5.98,0-11.97,0.08-17.95c0.03-2.61,0.59-5.14,1.91-7.44
		c2.35-4.07,6.02-6.15,10.57-6.58c3.14-0.3,6.32-0.3,9.48-0.31c4.44-0.02,8.88,0.03,13.31,0.12c2.33,0.04,4.61,0.46,6.74,1.48
		c4.49,2.15,6.97,5.8,7.5,10.67c0.35,3.18,0.39,6.39,0.41,9.59c0.03,4.36-0.06,8.72-0.14,13.08c-0.04,2.17-0.35,4.31-1.19,6.34
		c-1.69,4.06-4.72,6.59-8.94,7.72c-2.91,0.78-5.89,0.68-8.86,0.75c-2.01,0.05-4.01,0.01-6.02,0.01
		C49.38,74.39,49.38,74.42,49.38,74.44z M70.11,49.6c-0.05,0-0.09,0-0.14,0c0-2.05,0.05-4.09-0.01-6.14
		c-0.07-2.2-0.11-4.41-0.43-6.58c-0.56-3.7-2.71-6.13-6.36-7.16c-2.03-0.57-4.12-0.6-6.2-0.62c-5.09-0.05-10.19-0.04-15.29,0.03
		c-1.69,0.02-3.4,0.15-5.07,0.42c-3.92,0.66-6.52,3.26-7.17,7.18c-0.29,1.74-0.4,3.53-0.42,5.3c-0.05,4.94-0.03,9.88,0.02,14.82
		c0.02,1.69,0.13,3.4,0.38,5.07c0.62,4.16,3.26,6.84,7.4,7.48c1.86,0.29,3.76,0.4,5.65,0.42c4.75,0.06,9.5,0.06,14.24,0
		c1.77-0.02,3.55-0.17,5.3-0.4c2.47-0.33,4.55-1.44,6.03-3.51c1.14-1.59,1.64-3.41,1.72-5.33C69.93,56.93,70,53.27,70.11,49.6z"/>
	<path class="st0" d="M49.52,62.28c-7.17,0-12.9-5.72-12.9-12.86c0-7.05,5.75-12.74,12.88-12.75c7.04-0.01,12.87,5.8,12.86,12.81
		C62.36,56.56,56.61,62.28,49.52,62.28z M41.19,49.51c0.01,4.56,3.66,8.2,8.25,8.24c4.59,0.04,8.42-3.73,8.38-8.25
		c-0.04-4.64-3.72-8.31-8.33-8.3C44.85,41.21,41.17,44.89,41.19,49.51z"/>
	<path class="st0" d="M65.84,36.22c-0.02,1.64-1.44,3.02-3.06,2.98c-1.59-0.04-2.93-1.4-2.94-2.99c-0.01-1.68,1.31-3,3-3
		C64.52,33.21,65.86,34.56,65.84,36.22z"/>
</g>
</svg>
