<?xml version="1.0" encoding="utf-8"?>
<!-- Generator: Adobe Illustrator 23.0.0, SVG Export Plug-In . SVG Version: 6.00 Build 0)  -->
<svg version="1.1" xmlns="http://www.w3.org/2000/svg" xmlns:xlink="http://www.w3.org/1999/xlink" x="0px" y="0px"
	 viewBox="0 0 100 100" style="enable-background:new 0 0 100 100;" xml:space="preserve">
<style type="text/css">
	.st0{fill:#29ABE2;}
	.st1{display:none;}
	.st2{display:inline;}
	.st3{fill:#3F4447;}
	.st4{display:inline;fill:#29ABE2;}
	.st5{display:inline;fill:#FFFFFF;}
	.st6{display:inline;fill:#474747;}
	.st7{fill:#FFFFFF;}
	.st8{fill:#474747;}
</style>
<g id="Squer">
	<path class="st0" d="M85.33,98H14.67C7.7,98,2,92.3,2,85.33V14.67C2,7.7,7.7,2,14.67,2h70.67C92.3,2,98,7.7,98,14.67v70.67
		C98,92.3,92.3,98,85.33,98z"/>
</g>
<g id="all" class="st1">
	<g id="XMLID_104_" class="st2">
		<g id="XMLID_1912_">
			<path class="st3" d="M50.62,67.99c-1.95,0-3.86-0.42-5.68-1.26c-0.22-0.1-0.38-0.29-0.44-0.52c-0.06-0.23-0.01-0.48,0.13-0.67
				l0.93-1.24c0.49-0.65,1.14-1.12,1.86-1.34c0.16-0.05,0.39-0.11,0.76-0.14c0.81-0.07,1.31,0.1,1.7,0.23
				c0.27,0.09,0.46,0.15,0.76,0.16c0.3,0.01,0.5-0.06,0.77-0.14c0.39-0.12,0.88-0.28,1.69-0.2c0.35,0.03,0.64,0.1,0.94,0.22
				c0.61,0.24,1.16,0.66,1.58,1.21l0.95,1.23c0.15,0.19,0.2,0.44,0.14,0.67c-0.06,0.23-0.22,0.43-0.44,0.53
				c-1.8,0.83-3.69,1.25-5.62,1.26C50.66,67.99,50.64,67.99,50.62,67.99z M46.52,65.68c1.35,0.49,2.74,0.74,4.16,0.74
				c1.38-0.01,2.74-0.25,4.05-0.73l-0.32-0.42c-0.25-0.33-0.57-0.57-0.91-0.71c-0.16-0.06-0.31-0.1-0.52-0.12
				c-0.49-0.05-0.73,0.03-1.07,0.13c-0.31,0.1-0.69,0.21-1.26,0.21c-0.54-0.01-0.92-0.13-1.23-0.23c-0.33-0.11-0.59-0.19-1.09-0.15
				c-0.21,0.02-0.33,0.05-0.42,0.07c-0.4,0.12-0.77,0.39-1.06,0.78L46.52,65.68z"/>
			<path class="st3" d="M51.67,71.53h-2.01c-0.13,0-0.26,0-0.39-0.02c-0.6-0.05-1.18-0.22-1.72-0.49c-0.04-0.02-0.08-0.05-0.12-0.08
				l-1.34-1.03c-0.34-0.27-0.41-0.76-0.14-1.1c0.27-0.34,0.76-0.41,1.1-0.14l1.27,0.99c0.34,0.16,0.7,0.26,1.08,0.29
				c0.09,0.01,0.17,0.01,0.25,0.01h2.01c0.16,0,0.31-0.01,0.46-0.04c0.37-0.06,0.72-0.18,1.04-0.36l1.1-0.88
				c0.34-0.27,0.84-0.22,1.11,0.12c0.27,0.34,0.22,0.83-0.12,1.11l-1.15,0.92c-0.03,0.02-0.06,0.04-0.09,0.06
				c-0.51,0.3-1.06,0.5-1.64,0.59C52.16,71.51,51.92,71.53,51.67,71.53z"/>
			<path class="st3" d="M50.43,59.22c-0.87,0-1.74-0.22-2.37-0.67c-0.24-0.17-0.44-0.3-0.61-0.41c-0.58-0.39-0.93-0.62-1.07-1.19
				c-0.1-0.42,0.16-0.85,0.59-0.95c0.4-0.1,0.81,0.14,0.93,0.53c0.08,0.06,0.25,0.18,0.42,0.29c0.17,0.11,0.38,0.25,0.64,0.43
				c0.73,0.51,2.2,0.51,2.93,0c0.26-0.18,0.47-0.32,0.65-0.44c0.17-0.11,0.34-0.23,0.42-0.29c0.13-0.39,0.53-0.62,0.93-0.53
				c0.42,0.1,0.68,0.52,0.59,0.94c-0.13,0.57-0.48,0.8-1.07,1.19c-0.16,0.11-0.37,0.24-0.61,0.42C52.16,59,51.29,59.22,50.43,59.22z
				"/>
			<g id="XMLID_1919_">
				<path class="st3" d="M40.25,48.41c-0.42,0-0.94-0.04-1.53-0.17c-1.1-0.25-2.11-0.76-3-1.53c-0.13-0.1-0.54-0.38-1.14-0.37
					c-0.52,0.01-0.89,0.24-1.07,0.38c-0.35,0.27-0.84,0.2-1.1-0.14c-0.27-0.34-0.2-0.84,0.14-1.1c0.33-0.25,1.03-0.68,2-0.7
					c1.05-0.02,1.81,0.45,2.17,0.73c0.73,0.62,1.51,1.02,2.35,1.21c0.82,0.19,1.49,0.13,1.85,0.09c0.39-0.04,0.68-0.09,2.62-0.64
					c0.65-0.18,1.2-0.34,1.59-0.45c0.42-0.12,0.85,0.12,0.97,0.54c0.12,0.42-0.12,0.85-0.54,0.97c-0.4,0.11-0.95,0.27-1.6,0.46
					c-1.9,0.53-2.34,0.64-2.9,0.69C40.87,48.38,40.59,48.41,40.25,48.41z"/>
				<path class="st3" d="M36.38,49.43c-0.1,0-0.19-0.02-0.29-0.05c-0.41-0.16-0.6-0.62-0.45-1.02c0.37-0.95,1.31-1.61,2.57-1.82
					c0.43-0.07,0.83,0.22,0.9,0.65c0.07,0.43-0.22,0.83-0.65,0.9c-0.33,0.05-1.12,0.24-1.36,0.83
					C36.99,49.24,36.7,49.43,36.38,49.43z"/>
			</g>
			<g id="XMLID_1916_">
				<path class="st3" d="M60.46,48.41c-0.35,0-0.63-0.03-0.82-0.04c-0.57-0.05-1-0.15-2.9-0.69c-0.65-0.18-1.2-0.34-1.6-0.46
					c-0.42-0.12-0.66-0.56-0.54-0.97c0.12-0.42,0.55-0.66,0.97-0.54c0.4,0.11,0.94,0.27,1.59,0.45c1.93,0.54,2.22,0.6,2.62,0.64
					c0.36,0.03,1.03,0.09,1.85-0.09c0.84-0.19,1.63-0.59,2.33-1.19c0.38-0.3,1.12-0.78,2.19-0.75c0.97,0.02,1.67,0.45,2,0.7
					c0.34,0.27,0.41,0.76,0.14,1.1c-0.27,0.34-0.76,0.41-1.1,0.14c-0.18-0.14-0.55-0.37-1.07-0.38c-0.59-0.02-1.01,0.27-1.16,0.39
					c-0.87,0.75-1.88,1.26-2.98,1.51C61.4,48.37,60.88,48.41,60.46,48.41z"/>
				<path class="st3" d="M64.32,49.43c-0.31,0-0.61-0.19-0.73-0.5c-0.23-0.59-1.02-0.78-1.35-0.83c-0.43-0.07-0.72-0.48-0.65-0.9
					c0.07-0.43,0.48-0.72,0.9-0.65c1.26,0.21,2.2,0.87,2.57,1.82c0.16,0.41-0.04,0.86-0.45,1.02
					C64.51,49.41,64.42,49.43,64.32,49.43z"/>
			</g>
			<path class="st3" d="M50.35,79.57c-1.61,0-3.23-0.5-4.67-1.51c-4.91-3.46-13.42-10.33-15.31-17.39
				c-1.15-4.33-1.83-8.85-1.96-13.06c-0.01-0.43,0.33-0.8,0.76-0.81c0.42-0.01,0.8,0.33,0.81,0.76c0.13,4.1,0.79,8.49,1.91,12.71
				c1.75,6.58,9.96,13.17,14.69,16.51c2.32,1.62,5.2,1.62,7.53,0c1.86-1.31,3.62-2.68,5.23-4.05L60,72.13
				c0.83-0.74,1.68-1.5,2.47-2.29c2.31-2.33,5.09-5.5,6.12-9.37c0.11-0.42,0.54-0.67,0.96-0.56c0.42,0.11,0.67,0.54,0.56,0.96
				c-1.13,4.23-4.08,7.6-6.53,10.07c-0.82,0.83-1.7,1.6-2.54,2.36l-0.67,0.59c-1.66,1.41-3.45,2.81-5.36,4.15
				C53.58,79.06,51.96,79.57,50.35,79.57z"/>
			<path class="st3" d="M45.28,40.89c-0.24,0-0.47-0.11-0.63-0.31c-0.05-0.06-1.11-1.4-3.58-1.87c-2.67-0.51-6.06,0-6.09,0
				c-0.43,0.07-0.83-0.23-0.9-0.66c-0.07-0.43,0.23-0.83,0.66-0.9c0.15-0.02,3.69-0.55,6.63,0c3.11,0.59,4.48,2.39,4.54,2.47
				c0.26,0.35,0.19,0.84-0.16,1.1C45.61,40.84,45.44,40.89,45.28,40.89z"/>
			<path class="st3" d="M53.94,40.86c-0.17,0-0.33-0.05-0.48-0.16c-0.34-0.26-0.41-0.75-0.15-1.1c0.05-0.07,1.27-1.66,3.99-2.35
				c0.42-0.11,0.85,0.15,0.96,0.57c0.11,0.42-0.15,0.85-0.57,0.96c-2.15,0.54-3.11,1.75-3.12,1.77
				C54.41,40.75,54.17,40.86,53.94,40.86z"/>
		</g>
		<path class="st3" d="M28.16,73.7c-0.09,0-0.18-0.02-0.27-0.05c-0.41-0.15-0.62-0.6-0.47-1.01c0.83-2.29,0.9-4.79,0.19-7.05
			c-0.56-1.79-1.54-3.38-2.59-5.08c-0.32-0.53-0.65-1.05-0.96-1.58c-2.42-4.15-3.11-10.05-1.74-15.01
			c1.8-6.54,7.01-9.04,12.05-11.45c3.28-1.57,6.66-3.19,9.09-5.93c0.29-0.33,0.79-0.36,1.11-0.07c0.33,0.29,0.36,0.79,0.07,1.11
			c-2.64,2.98-6.17,4.67-9.59,6.31c-4.94,2.37-9.6,4.6-11.21,10.45c-1.26,4.58-0.64,10,1.58,13.8c0.3,0.52,0.62,1.03,0.94,1.55
			c1.05,1.7,2.13,3.46,2.75,5.43c0.81,2.59,0.74,5.45-0.21,8.07C28.78,73.5,28.48,73.7,28.16,73.7z"/>
		<path class="st3" d="M74.56,64.14c-0.17,0-0.34-0.05-0.48-0.17c-0.34-0.27-0.4-0.76-0.14-1.11c4-5.13,3.43-12.96-1.29-17.82
			c-1.82-1.87-4.08-3.06-6.48-4.32c-1.91-1-3.88-2.03-5.6-3.44c-3.7-3.03-8.23-8.05-8.73-14.8c-0.03-0.43,0.29-0.81,0.73-0.84
			c0.44-0.03,0.81,0.29,0.84,0.73c0.46,6.19,4.69,10.86,8.15,13.7c1.6,1.31,3.5,2.31,5.34,3.27c2.4,1.26,4.88,2.56,6.88,4.62
			c5.34,5.5,5.94,14.05,1.4,19.88C75.03,64.04,74.8,64.14,74.56,64.14z"/>
	</g>
</g>
<g id="all_line" class="st1">
	<path class="st4" d="M29.88,80.93c4.27,1.55,8.68,2.47,13.09,2.59c2.2,0.08,4.4-0.03,6.56-0.34c2.16-0.3,4.29-0.76,6.35-1.41
		c8.28-2.54,15.48-8.01,20.21-15.12c4.75-7.1,6.96-15.86,6.11-24.49c-0.09-1.08-0.26-2.15-0.43-3.22l-0.33-1.6
		c-0.11-0.53-0.26-1.06-0.39-1.59c-0.56-2.11-1.31-4.17-2.23-6.18c-1.82-4.02-4.39-7.72-7.45-11.08c3.69,2.66,6.83,6.14,9.27,10.11
		c2.37,3.99,4.11,8.45,4.83,13.13c1.58,9.31-0.56,19.31-5.89,27.24c-5.28,7.95-13.62,13.83-22.84,15.97
		c-4.6,1.09-9.37,1.27-13.97,0.61C38.19,84.85,33.75,83.32,29.88,80.93z"/>
</g>
<g id="all_line_white" class="st1">
	<path class="st5" d="M29.88,80.93c4.27,1.55,8.68,2.47,13.09,2.59c2.2,0.08,4.4-0.03,6.56-0.34c2.16-0.3,4.29-0.76,6.35-1.41
		c8.28-2.54,15.48-8.01,20.21-15.12c4.75-7.1,6.96-15.86,6.11-24.49c-0.09-1.08-0.26-2.15-0.43-3.22l-0.33-1.6
		c-0.11-0.53-0.26-1.06-0.39-1.59c-0.56-2.11-1.31-4.17-2.23-6.18c-1.82-4.02-4.39-7.72-7.45-11.08c3.69,2.66,6.83,6.14,9.27,10.11
		c2.37,3.99,4.11,8.45,4.83,13.13c1.58,9.31-0.56,19.31-5.89,27.24c-5.28,7.95-13.62,13.83-22.84,15.97
		c-4.6,1.09-9.37,1.27-13.97,0.61C38.19,84.85,33.75,83.32,29.88,80.93z"/>
</g>
<g id="bold_head" class="st1">
	<path class="st6" d="M47.91,62.57c-0.26,0-0.52-0.1-0.72-0.3c-1.83-1.83-9.51-5.07-16.78-1.86c-0.51,0.23-1.12-0.01-1.34-0.52
		c-0.23-0.52,0.01-1.12,0.52-1.34c8.28-3.65,16.86,0.11,19.04,2.29c0.4,0.4,0.4,1.04,0,1.44C48.43,62.47,48.17,62.57,47.91,62.57z"
		/>
	<path class="st6" d="M57.58,62.57c-0.26,0-0.52-0.1-0.72-0.3c-0.4-0.4-0.4-1.04,0-1.44c2.18-2.18,10.76-5.94,19.04-2.29
		c0.52,0.23,0.75,0.83,0.52,1.34c-0.23,0.52-0.83,0.75-1.34,0.52c-7.27-3.21-14.95,0.04-16.78,1.86
		C58.1,62.47,57.84,62.57,57.58,62.57z"/>
	<path class="st6" d="M80.67,61.38c-0.1,0-0.2-0.02-0.31-0.05c-0.49-0.17-0.75-0.7-0.58-1.19c0.53-1.53,0.93-3.11,1.19-4.69
		c0.27-1.59,0.4-3.22,0.4-4.85c0-7.78-3.09-15.12-8.69-20.67c-5.6-5.55-12.97-8.57-20.76-8.5c-7.73,0.07-14.99,3.14-20.43,8.63
		c-5.45,5.5-8.45,12.79-8.45,20.53c0,3.15,0.5,6.24,1.48,9.19c0.16,0.49-0.1,1.02-0.59,1.18c-0.49,0.16-1.02-0.1-1.18-0.59
		c-1.04-3.14-1.57-6.43-1.57-9.78c0-8.24,3.19-16,8.99-21.85c5.79-5.85,13.52-9.11,21.74-9.19C60.19,19.48,68.04,22.7,74,28.6
		c5.96,5.91,9.24,13.72,9.24,21.99c0,1.73-0.14,3.47-0.43,5.16c-0.28,1.68-0.71,3.36-1.27,4.99C81.42,61.13,81.06,61.38,80.67,61.38
		z"/>
	<path class="st6" d="M20.35,67.14c-0.35,0-0.68-0.19-0.84-0.52c-2.43-4.97-3.22-7.93-2.54-9.62c0.26-0.66,0.75-1.14,1.42-1.39
		c2.57-0.96,5.57,3.5,7.27,8.05c0.18,0.48-0.07,1.02-0.55,1.2c-0.48,0.18-1.02-0.07-1.2-0.55c-1.87-5-4.29-7.17-4.87-6.95
		c-0.17,0.07-0.27,0.16-0.34,0.33c-0.25,0.62-0.25,2.5,2.49,8.1c0.23,0.46,0.03,1.02-0.43,1.25C20.63,67.11,20.49,67.14,20.35,67.14
		z"/>
	<path class="st6" d="M83.97,67.16c-0.15,0-0.3-0.04-0.44-0.11c-0.46-0.24-0.63-0.81-0.38-1.26c2.94-5.5,3.01-7.38,2.78-8.01
		c-0.06-0.17-0.15-0.27-0.33-0.34c-0.57-0.24-3.07,1.84-5.12,6.77c-0.2,0.48-0.74,0.7-1.22,0.5c-0.48-0.2-0.7-0.74-0.5-1.22
		c1.86-4.49,5.02-8.83,7.56-7.78c0.66,0.27,1.13,0.77,1.37,1.44c0.61,1.71-0.28,4.64-2.89,9.52C84.62,66.98,84.3,67.16,83.97,67.16z
		"/>
</g>
<g id="hair_foli" class="st1">
	<path class="st4" d="M24.32,56.08c-0.02-0.79,0.04-1.59,0.14-2.38c0.11-0.79,0.26-1.58,0.47-2.36c0.41-1.56,1.03-3.09,1.9-4.52
		c0.87-1.42,2.01-2.73,3.4-3.77c0.69-0.52,1.44-0.98,2.23-1.35c0.79-0.37,1.61-0.68,2.46-0.89c0.84-0.22,1.7-0.36,2.56-0.44
		c0.21-0.02,0.43-0.04,0.64-0.05c0.22-0.01,0.41-0.02,0.68-0.02c0.5,0,0.99,0.06,1.45,0.14c0.47,0.08,0.91,0.19,1.33,0.32
		c0.43,0.12,0.83,0.27,1.23,0.42c0.79,0.31,1.53,0.63,2.26,0.96c0.72,0.32,1.42,0.65,2.11,0.94c0.69,0.3,1.36,0.57,2.03,0.79
		c1.34,0.45,2.63,0.7,3.87,0.63c0.62-0.04,1.25-0.14,1.89-0.31c0.64-0.17,1.29-0.42,1.95-0.7c1.33-0.56,2.7-1.3,4.23-1.97
		c0.77-0.33,1.59-0.64,2.46-0.88c0.87-0.23,1.8-0.39,2.74-0.4c0.24,0,0.48,0,0.68,0.01c0.21,0.01,0.43,0.02,0.64,0.04
		c0.43,0.03,0.86,0.08,1.29,0.14c0.86,0.13,1.71,0.34,2.55,0.62c1.67,0.55,3.24,1.48,4.52,2.69c0.64,0.6,1.2,1.27,1.69,1.98
		c0.48,0.71,0.89,1.46,1.23,2.22c0.67,1.54,1.07,3.14,1.26,4.75c0.1,0.8,0.14,1.6,0.14,2.4c-0.01,0.8-0.05,1.6-0.17,2.38
		c-0.21-1.57-0.57-3.09-1.04-4.54c-0.49-1.45-1.1-2.84-1.9-4.08c-0.39-0.62-0.83-1.2-1.31-1.72c-0.48-0.53-1-1-1.56-1.41
		c-0.56-0.41-1.15-0.76-1.78-1.04c-0.62-0.28-1.28-0.49-1.94-0.66c-0.67-0.16-1.36-0.26-2.06-0.31c-0.35-0.03-0.7-0.04-1.05-0.04
		c-0.35,0-0.73,0-1.02,0.03c-0.16,0.01-0.31,0.04-0.47,0.06c-0.16,0.03-0.31,0.05-0.47,0.09c-0.31,0.06-0.63,0.15-0.94,0.25
		c-0.63,0.21-1.27,0.48-1.93,0.8c-1.31,0.63-2.68,1.42-4.22,2.13c-0.78,0.34-1.59,0.66-2.46,0.91c-0.87,0.24-1.79,0.42-2.73,0.46
		c-0.94,0.04-1.88-0.04-2.78-0.2c-0.9-0.16-1.75-0.4-2.56-0.7c-0.81-0.3-1.58-0.63-2.32-0.98c-0.74-0.35-1.45-0.7-2.14-1.06
		c-1.38-0.7-2.71-1.36-3.93-1.67c-0.3-0.08-0.6-0.13-0.88-0.15c-0.12-0.02-0.32-0.02-0.49-0.02c-0.18-0.01-0.35,0-0.53,0
		c-0.71,0.01-1.41,0.06-2.1,0.17c-0.69,0.12-1.36,0.28-2.02,0.51c-0.66,0.23-1.29,0.52-1.9,0.87c-1.22,0.7-2.32,1.64-3.28,2.77
		c-0.96,1.12-1.76,2.41-2.44,3.78C25.27,53.09,24.72,54.55,24.32,56.08z"/>
</g>
<g id="hair_foli_White" class="st1">
	<path class="st5" d="M24.32,56.08c-0.02-0.79,0.04-1.59,0.14-2.38c0.11-0.79,0.26-1.58,0.47-2.36c0.41-1.56,1.03-3.09,1.9-4.52
		c0.87-1.42,2.01-2.73,3.4-3.77c0.69-0.52,1.44-0.98,2.23-1.35c0.79-0.37,1.61-0.68,2.46-0.89c0.84-0.22,1.7-0.36,2.56-0.44
		c0.21-0.02,0.43-0.04,0.64-0.05c0.22-0.01,0.41-0.02,0.68-0.02c0.5,0,0.99,0.06,1.45,0.14c0.47,0.08,0.91,0.19,1.33,0.32
		c0.43,0.12,0.83,0.27,1.23,0.42c0.79,0.31,1.53,0.63,2.26,0.96c0.72,0.32,1.42,0.65,2.11,0.94c0.69,0.3,1.36,0.57,2.03,0.79
		c1.34,0.45,2.63,0.7,3.87,0.63c0.62-0.04,1.25-0.14,1.89-0.31c0.64-0.17,1.29-0.42,1.95-0.7c1.33-0.56,2.7-1.3,4.23-1.97
		c0.77-0.33,1.59-0.64,2.46-0.88c0.87-0.23,1.8-0.39,2.74-0.4c0.24,0,0.48,0,0.68,0.01c0.21,0.01,0.43,0.02,0.64,0.04
		c0.43,0.03,0.86,0.08,1.29,0.14c0.86,0.13,1.71,0.34,2.55,0.62c1.67,0.55,3.24,1.48,4.52,2.69c0.64,0.6,1.2,1.27,1.69,1.98
		c0.48,0.71,0.89,1.46,1.23,2.22c0.67,1.54,1.07,3.14,1.26,4.75c0.1,0.8,0.14,1.6,0.14,2.4c-0.01,0.8-0.05,1.6-0.17,2.38
		c-0.21-1.57-0.57-3.09-1.04-4.54c-0.49-1.45-1.1-2.84-1.9-4.08c-0.39-0.62-0.83-1.2-1.31-1.72c-0.48-0.53-1-1-1.56-1.41
		c-0.56-0.41-1.15-0.76-1.78-1.04c-0.62-0.28-1.28-0.49-1.94-0.66c-0.67-0.16-1.36-0.26-2.06-0.31c-0.35-0.03-0.7-0.04-1.05-0.04
		c-0.35,0-0.73,0-1.02,0.03c-0.16,0.01-0.31,0.04-0.47,0.06c-0.16,0.03-0.31,0.05-0.47,0.09c-0.31,0.06-0.63,0.15-0.94,0.25
		c-0.63,0.21-1.27,0.48-1.93,0.8c-1.31,0.63-2.68,1.42-4.22,2.13c-0.78,0.34-1.59,0.66-2.46,0.91c-0.87,0.24-1.79,0.42-2.73,0.46
		c-0.94,0.04-1.88-0.04-2.78-0.2c-0.9-0.16-1.75-0.4-2.56-0.7c-0.81-0.3-1.58-0.63-2.32-0.98c-0.74-0.35-1.45-0.7-2.14-1.06
		c-1.38-0.7-2.71-1.36-3.93-1.67c-0.3-0.08-0.6-0.13-0.88-0.15c-0.12-0.02-0.32-0.02-0.49-0.02c-0.18-0.01-0.35,0-0.53,0
		c-0.71,0.01-1.41,0.06-2.1,0.17c-0.69,0.12-1.36,0.28-2.02,0.51c-0.66,0.23-1.29,0.52-1.9,0.87c-1.22,0.7-2.32,1.64-3.28,2.77
		c-0.96,1.12-1.76,2.41-2.44,3.78C25.27,53.09,24.72,54.55,24.32,56.08z"/>
</g>
<g id="areola2" class="st1">
	<path class="st4" d="M49.27,50.25c0.53-0.23,0.98-0.52,1.34-0.88c0.18-0.18,0.34-0.37,0.47-0.57c0.03-0.05,0.06-0.1,0.1-0.15
		l0.08-0.16c0.06-0.1,0.1-0.21,0.15-0.32c0.34-0.86,0.3-1.8-0.08-2.58c-0.18-0.39-0.46-0.74-0.79-1.02
		c-0.33-0.28-0.73-0.51-1.17-0.64c-0.44-0.13-0.93-0.18-1.43-0.12c-0.5,0.06-1.01,0.23-1.52,0.5c0.28-0.51,0.74-0.93,1.29-1.21
		c0.56-0.28,1.21-0.4,1.86-0.35c1.31,0.09,2.57,0.95,3.14,2.18c0.29,0.61,0.43,1.29,0.38,1.96l-0.02,0.25
		c-0.01,0.08-0.03,0.16-0.04,0.25c-0.02,0.16-0.08,0.32-0.13,0.48c-0.05,0.16-0.12,0.31-0.19,0.46c-0.08,0.14-0.16,0.29-0.25,0.42
		c-0.37,0.54-0.86,0.97-1.43,1.23C50.46,50.25,49.84,50.35,49.27,50.25z"/>
</g>
<g id="areola1" class="st1">
	<path class="st4" d="M42.9,41.94c-0.62,1.19-0.99,2.43-1.08,3.67c-0.03,0.31-0.03,0.61-0.02,0.92c0.01,0.3,0.03,0.61,0.09,0.9
		c0.02,0.15,0.05,0.3,0.06,0.44l0.11,0.43c0.05,0.29,0.17,0.57,0.26,0.84c0.81,2.2,2.59,3.93,4.73,4.66
		c1.06,0.39,2.21,0.51,3.35,0.39c1.13-0.12,2.25-0.47,3.25-1.09c0.12-0.08,0.25-0.16,0.37-0.24c0.13-0.07,0.24-0.18,0.36-0.26
		c0.12-0.09,0.24-0.17,0.35-0.28c0.11-0.1,0.22-0.2,0.33-0.3c0.05-0.05,0.11-0.1,0.17-0.15l0.15-0.17c0.1-0.11,0.2-0.22,0.31-0.33
		c0.1-0.12,0.19-0.24,0.28-0.36c0.09-0.12,0.19-0.24,0.27-0.37c0.69-1.02,1.18-2.22,1.45-3.54c0.25,1.32,0.1,2.75-0.41,4.07
		c-0.05,0.17-0.14,0.33-0.21,0.49c-0.08,0.16-0.15,0.32-0.24,0.48c-0.09,0.15-0.19,0.3-0.28,0.46l-0.14,0.23
		c-0.05,0.08-0.11,0.14-0.16,0.22c-0.11,0.14-0.22,0.29-0.33,0.43c-0.11,0.14-0.25,0.27-0.37,0.4c-0.13,0.13-0.25,0.27-0.39,0.39
		c-0.14,0.12-0.28,0.24-0.42,0.36c-2.28,1.87-5.62,2.46-8.47,1.42l-0.53-0.2c-0.17-0.08-0.34-0.16-0.51-0.24
		c-0.34-0.15-0.66-0.36-0.98-0.56c-0.16-0.1-0.31-0.22-0.46-0.33c-0.15-0.12-0.3-0.23-0.44-0.35l-0.41-0.39l-0.2-0.19
		c-0.06-0.07-0.12-0.14-0.18-0.21l-0.36-0.43c-0.12-0.14-0.22-0.3-0.33-0.45c-0.1-0.16-0.22-0.3-0.31-0.47l-0.27-0.49
		c-0.09-0.16-0.16-0.33-0.24-0.5c-0.07-0.17-0.15-0.34-0.22-0.51l-0.16-0.53c-0.05-0.18-0.11-0.35-0.14-0.53
		c-0.07-0.36-0.15-0.72-0.17-1.08l-0.04-0.54c0-0.18,0.01-0.36,0.01-0.54c0.01-0.72,0.14-1.43,0.35-2.11
		C41.1,44.03,41.87,42.81,42.9,41.94z"/>
</g>
<g id="areola2_White">
	<path class="st7" d="M49.27,50.25c0.53-0.23,0.98-0.52,1.34-0.88c0.18-0.18,0.34-0.37,0.47-0.57c0.03-0.05,0.06-0.1,0.1-0.15
		l0.08-0.16c0.06-0.1,0.1-0.21,0.15-0.32c0.34-0.86,0.3-1.8-0.08-2.58c-0.18-0.39-0.46-0.74-0.79-1.02
		c-0.33-0.28-0.73-0.51-1.17-0.64c-0.44-0.13-0.93-0.18-1.43-0.12c-0.5,0.06-1.01,0.23-1.52,0.5c0.28-0.51,0.74-0.93,1.29-1.21
		c0.56-0.28,1.21-0.4,1.86-0.35c1.31,0.09,2.57,0.95,3.14,2.18c0.29,0.61,0.43,1.29,0.38,1.96l-0.02,0.25
		c-0.01,0.08-0.03,0.16-0.04,0.25c-0.02,0.16-0.08,0.32-0.13,0.48c-0.05,0.16-0.12,0.31-0.19,0.46c-0.08,0.14-0.16,0.29-0.25,0.42
		c-0.37,0.54-0.86,0.97-1.43,1.23C50.46,50.25,49.84,50.35,49.27,50.25z"/>
</g>
<g id="areola1_White">
	<path class="st7" d="M42.9,41.94c-0.62,1.19-0.99,2.43-1.08,3.67c-0.03,0.31-0.03,0.61-0.02,0.92c0.01,0.3,0.03,0.61,0.09,0.9
		c0.02,0.15,0.05,0.3,0.06,0.44l0.11,0.43c0.05,0.29,0.17,0.57,0.26,0.84c0.81,2.2,2.59,3.93,4.73,4.66
		c1.06,0.39,2.21,0.51,3.35,0.39c1.13-0.12,2.25-0.47,3.25-1.09c0.12-0.08,0.25-0.16,0.37-0.24c0.13-0.07,0.24-0.18,0.36-0.26
		c0.12-0.09,0.24-0.17,0.35-0.28c0.11-0.1,0.22-0.2,0.33-0.3c0.05-0.05,0.11-0.1,0.17-0.15l0.15-0.17c0.1-0.11,0.2-0.22,0.31-0.33
		c0.1-0.12,0.19-0.24,0.28-0.36c0.09-0.12,0.19-0.24,0.27-0.37c0.69-1.02,1.18-2.22,1.45-3.54c0.25,1.32,0.1,2.75-0.41,4.07
		c-0.05,0.17-0.14,0.33-0.21,0.49c-0.08,0.16-0.15,0.32-0.24,0.48c-0.09,0.15-0.19,0.3-0.28,0.46l-0.14,0.23
		c-0.05,0.08-0.11,0.14-0.16,0.22c-0.11,0.14-0.22,0.29-0.33,0.43c-0.11,0.14-0.25,0.27-0.37,0.4c-0.13,0.13-0.25,0.27-0.39,0.39
		c-0.14,0.12-0.28,0.24-0.42,0.36c-2.28,1.87-5.62,2.46-8.47,1.42l-0.53-0.2c-0.17-0.08-0.34-0.16-0.51-0.24
		c-0.34-0.15-0.66-0.36-0.98-0.56c-0.16-0.1-0.31-0.22-0.46-0.33c-0.15-0.12-0.3-0.23-0.44-0.35l-0.41-0.39l-0.2-0.19
		c-0.06-0.07-0.12-0.14-0.18-0.21l-0.36-0.43c-0.12-0.14-0.22-0.3-0.33-0.45c-0.1-0.16-0.22-0.3-0.31-0.47l-0.27-0.49
		c-0.09-0.16-0.16-0.33-0.24-0.5c-0.07-0.17-0.15-0.34-0.22-0.51l-0.16-0.53c-0.05-0.18-0.11-0.35-0.14-0.53
		c-0.07-0.36-0.15-0.72-0.17-1.08l-0.04-0.54c0-0.18,0.01-0.36,0.01-0.54c0.01-0.72,0.14-1.43,0.35-2.11
		C41.1,44.03,41.87,42.81,42.9,41.94z"/>
</g>
<g id="tit">
	<path class="st8" d="M48.73,75.12c-0.7,0-1.41-0.02-2.12-0.07c-4.81-0.32-9.44-1.72-13.39-4.07c-5.41-3.21-12.19-9.73-13.79-22.56
		c-0.08-0.65,0.38-1.25,1.03-1.33c0.65-0.08,1.25,0.38,1.33,1.03c1.48,11.88,7.7,17.87,12.65,20.81c7.11,4.22,16.7,4.98,24.41,1.94
		c7.62-3,11.69-8.43,13.75-12.45c2.45-4.78,3.46-10.31,2.69-14.8c-0.97-5.68-3.86-9.47-5.77-11.98c-1-1.31-1.66-2.18-1.85-3.02
		c-0.14-0.64,0.26-1.28,0.9-1.42c0.64-0.14,1.28,0.26,1.42,0.9c0.07,0.33,0.79,1.27,1.42,2.09c1.93,2.53,5.16,6.77,6.23,13.03
		c0.85,4.98-0.24,11.07-2.92,16.29c-2.25,4.39-6.68,10.31-14.99,13.58C56.34,74.43,52.58,75.12,48.73,75.12z"/>
</g>
<g id="lip_shadow" class="st1">
	<path class="st4" d="M13.16,47.81c0.82,0.28,1.62,0.54,2.43,0.78c0.81,0.24,1.62,0.47,2.43,0.69c1.62,0.44,3.23,0.85,4.85,1.24
		c3.24,0.77,6.47,1.47,9.7,2.09c3.23,0.62,6.45,1.15,9.65,1.53c0.4,0.05,0.8,0.09,1.2,0.13c0.4,0.05,0.8,0.08,1.19,0.12l0.6,0.05
		l0.59,0.04l0.59,0.05l0.59,0.03l0.59,0.03l0.59,0.02l0.59,0.02l0.58,0.01l0.58,0.01l0.57-0.01l0.57-0.01l0.6-0.02
		c3.22-0.1,6.44-0.37,9.67-0.72c3.22-0.36,6.45-0.85,9.67-1.42c3.22-0.58,6.44-1.26,9.66-2.04l1.21-0.3l1.21-0.32
		c0.81-0.21,1.61-0.43,2.42-0.66c1.61-0.46,3.22-0.96,4.86-1.5c-1.24,1.2-2.61,2.26-4.04,3.23l-0.54,0.37l-0.54,0.35
		c-0.36,0.24-0.73,0.46-1.1,0.69c-0.74,0.45-1.49,0.87-2.25,1.29c-3.05,1.63-6.24,3-9.52,4.11c-6.56,2.23-13.48,3.51-20.48,3.72
		l-0.66,0.02l-0.69,0l-0.69,0l-0.68-0.02l-0.68-0.02l-0.67-0.04c-0.22-0.01-0.45-0.03-0.67-0.04l-0.67-0.06l-0.67-0.06l-0.66-0.08
		c-0.44-0.05-0.88-0.11-1.32-0.18c-0.88-0.12-1.74-0.27-2.6-0.44c-3.44-0.66-6.79-1.6-10.04-2.75c-3.26-1.15-6.42-2.51-9.47-4.12
		c-1.52-0.81-3.02-1.66-4.46-2.62c-0.72-0.47-1.43-0.97-2.12-1.49C14.45,48.96,13.78,48.41,13.16,47.81z"/>
</g>
<g id="lip_shadow_White" class="st1">
	<path class="st5" d="M13.16,47.81c0.82,0.28,1.62,0.54,2.43,0.78c0.81,0.24,1.62,0.47,2.43,0.69c1.62,0.44,3.23,0.85,4.85,1.24
		c3.24,0.77,6.47,1.47,9.7,2.09c3.23,0.62,6.45,1.15,9.65,1.53c0.4,0.05,0.8,0.09,1.2,0.13c0.4,0.05,0.8,0.08,1.19,0.12l0.6,0.05
		l0.59,0.04l0.59,0.05l0.59,0.03l0.59,0.03l0.59,0.02l0.59,0.02l0.58,0.01l0.58,0.01l0.57-0.01l0.57-0.01l0.6-0.02
		c3.22-0.1,6.44-0.37,9.67-0.72c3.22-0.36,6.45-0.85,9.67-1.42c3.22-0.58,6.44-1.26,9.66-2.04l1.21-0.3l1.21-0.32
		c0.81-0.21,1.61-0.43,2.42-0.66c1.61-0.46,3.22-0.96,4.86-1.5c-1.24,1.2-2.61,2.26-4.04,3.23l-0.54,0.37l-0.54,0.35
		c-0.36,0.24-0.73,0.46-1.1,0.69c-0.74,0.45-1.49,0.87-2.25,1.29c-3.05,1.63-6.24,3-9.52,4.11c-6.56,2.23-13.48,3.51-20.48,3.72
		l-0.66,0.02l-0.69,0l-0.69,0l-0.68-0.02l-0.68-0.02l-0.67-0.04c-0.22-0.01-0.45-0.03-0.67-0.04l-0.67-0.06l-0.67-0.06l-0.66-0.08
		c-0.44-0.05-0.88-0.11-1.32-0.18c-0.88-0.12-1.74-0.27-2.6-0.44c-3.44-0.66-6.79-1.6-10.04-2.75c-3.26-1.15-6.42-2.51-9.47-4.12
		c-1.52-0.81-3.02-1.66-4.46-2.62c-0.72-0.47-1.43-0.97-2.12-1.49C14.45,48.96,13.78,48.41,13.16,47.81z"/>
</g>
<g id="lips" class="st1">
	<g class="st2">
		<g>
			<g>
				<path class="st8" d="M84.41,49.85c-0.14,0-0.28-0.02-0.42-0.08l-23.85-8.9l-7.58,5.21c-0.41,0.28-0.95,0.29-1.36,0.01l-7.9-5.22
					l-23.16,8.89c-0.63,0.24-1.33-0.07-1.57-0.7c-0.24-0.63,0.07-1.33,0.7-1.57L43,38.38c0.37-0.14,0.78-0.1,1.11,0.12l7.74,5.12
					l7.43-5.1c0.33-0.22,0.74-0.28,1.11-0.14l24.44,9.12c0.63,0.23,0.95,0.94,0.71,1.56C85.37,49.55,84.9,49.85,84.41,49.85z"/>
				<path class="st8" d="M51.76,55.4c-17.27,0-37.5-6.88-38.35-7.17c-0.64-0.22-0.97-0.91-0.75-1.55c0.22-0.64,0.91-0.97,1.55-0.76
					c0.21,0.07,20.7,7.04,37.56,7.04c16.87,0,37.94-6.98,38.16-7.05c0.64-0.21,1.33,0.13,1.54,0.77c0.21,0.64-0.13,1.33-0.77,1.54
					C89.81,48.52,69.02,55.4,51.76,55.4z"/>
				<path class="st8" d="M60.42,69.22H43.55c-6.72,0-13.15-2.09-18.58-6.06l-5.04-3.67c-0.54-0.4-0.66-1.16-0.27-1.7
					c0.4-0.54,1.16-0.66,1.7-0.27l5.04,3.67c5.01,3.66,10.94,5.59,17.15,5.59h16.87c6.2,0,12.13-1.93,17.15-5.59l5.04-3.67
					c0.54-0.4,1.3-0.28,1.7,0.27c0.4,0.54,0.28,1.3-0.27,1.7L79,63.17C73.57,67.13,67.15,69.22,60.42,69.22z"/>
			</g>
		</g>
		<path class="st8" d="M46.61,55.21c-0.36,0-0.72-0.16-0.96-0.47l-3.7-4.74c-0.41-0.53-0.32-1.29,0.21-1.71
			c0.53-0.41,1.29-0.32,1.71,0.21l3.7,4.74c0.41,0.53,0.32,1.29-0.21,1.71C47.14,55.13,46.88,55.21,46.61,55.21z"/>
		<path class="st8" d="M57.5,55.21c-0.26,0-0.53-0.08-0.75-0.26c-0.53-0.41-0.62-1.18-0.21-1.71l3.7-4.74
			c0.41-0.53,1.18-0.62,1.71-0.21c0.53,0.41,0.62,1.18,0.21,1.71l-3.7,4.74C58.22,55.05,57.87,55.21,57.5,55.21z"/>
	</g>
</g>
<g id="Eye_Brow" class="st1">
	<path class="st4" d="M14.57,30.71c2.47-2.66,5.26-5.04,8.32-7.09c1.53-1.03,3.11-1.97,4.76-2.83c1.65-0.85,3.34-1.62,5.09-2.28
		c6.97-2.66,14.69-3.72,22.28-2.93c3.79,0.37,7.55,1.17,11.21,2.37c3.65,1.21,7.24,2.71,10.65,4.57c3.41,1.86,6.61,4.13,9.38,6.82
		c1.39,1.34,2.67,2.77,3.85,4.25c0.3,0.37,0.59,0.74,0.87,1.12l0.84,1.12c0.54,0.75,1.07,1.5,1.55,2.2l0.05,0.08
		c1.33,1.93,0.84,4.57-1.09,5.9c-1.7,1.17-3.96,0.93-5.38-0.47l-1.92-1.9l-0.92-0.91c-0.3-0.3-0.61-0.6-0.91-0.89
		c-1.22-1.17-2.42-2.31-3.64-3.44c-2.43-2.23-4.85-4.44-7.46-6.45c-2.6-2.01-5.44-3.75-8.49-5.06c-0.76-0.33-1.53-0.64-2.31-0.93
		c-0.78-0.29-1.57-0.56-2.36-0.81c-1.59-0.49-3.22-0.93-4.86-1.25c-6.56-1.36-13.47-1.27-20.16,0.37c-1.67,0.41-3.33,0.9-4.95,1.5
		c-1.63,0.59-3.24,1.26-4.81,2.03c-3.14,1.54-6.14,3.41-8.95,5.6l0,0c-0.2,0.16-0.5,0.12-0.66-0.08
		C14.4,31.13,14.42,30.88,14.57,30.71z"/>
</g>
<g id="Eye_liner" class="st1">
	<path class="st4" d="M92.08,67.55c-2.37,2.59-5.35,4.65-8.55,6.25c-3.2,1.6-6.64,2.74-10.15,3.5c-1.76,0.37-3.54,0.66-5.33,0.86
		c-0.45,0.05-0.9,0.09-1.35,0.13c-0.45,0.04-0.9,0.07-1.35,0.1l-0.68,0.04l-0.68,0.03l-0.68,0.02l-0.68,0
		c-3.61,0.03-7.23-0.28-10.79-0.95c-3.66-0.68-7.23-1.95-10.5-3.72c-3.28-1.77-6.27-4-8.91-6.55c-1.33-1.27-2.55-2.63-3.71-4.05
		c-1.16-1.41-2.21-2.9-3.19-4.43c-0.49-0.77-0.96-1.55-1.4-2.34c-0.44-0.8-0.86-1.61-1.25-2.43c-0.4-0.82-0.75-1.67-1.08-2.54
		c-0.13-0.35-0.26-0.71-0.38-1.07c0,0-10.65,0.47-12.43,0.6c1.69-0.59,6.53-2.16,8.2-2.71c1.67-0.56,3.35-1.11,4.92-1.74l1.63-0.65
		l0.67,1.88c0.24,0.68,0.57,1.43,0.94,2.15c0.37,0.72,0.77,1.44,1.19,2.15c0.83,1.42,1.78,2.79,2.76,4.13
		c0.98,1.33,2.05,2.61,3.14,3.84c1.1,1.23,2.28,2.38,3.49,3.48c2.43,2.19,5.09,4.11,7.93,5.64c2.84,1.54,5.86,2.68,9.02,3.38
		c3.24,0.73,6.56,1.18,9.89,1.39l0.63,0.04l0.63,0.02l0.63,0.03l0.63,0.02c0.42,0.01,0.84,0.02,1.26,0.02c0.42,0,0.84,0,1.26-0.01
		c1.68-0.03,3.35-0.12,5.03-0.29c3.35-0.33,6.67-0.96,9.92-1.96C85.98,70.81,89.13,69.43,92.08,67.55z"/>
</g>
<g id="eye_shadow" class="st1">
	<path class="st4" d="M90.56,56.93c-1.57-3.19-3.46-6.18-5.62-8.93c-1.08-1.37-2.23-2.68-3.44-3.92c-1.21-1.24-2.48-2.41-3.81-3.5
		c-5.31-4.38-11.49-7.47-17.99-9.1c-1.62-0.43-3.28-0.74-4.92-0.99c-0.83-0.12-1.65-0.22-2.48-0.3c-0.83-0.08-1.66-0.13-2.48-0.17
		c-3.31-0.15-6.63,0.19-9.85,0.86c-3.22,0.67-6.36,1.6-9.52,2.56c-1.58,0.48-3.16,0.98-4.77,1.51c-0.4,0.13-0.8,0.27-1.21,0.4
		l-1.22,0.41l-2.55,0.87c-2.22,0.75-4.62-0.43-5.38-2.65c-0.67-1.96,0.18-4.07,1.91-5.05l0.08-0.05c0.73-0.42,1.54-0.87,2.35-1.3
		l1.24-0.65c0.42-0.21,0.84-0.42,1.27-0.62c1.71-0.82,3.49-1.55,5.32-2.15c3.66-1.22,7.53-1.87,11.41-2.06
		c3.88-0.19,7.77,0.02,11.58,0.52c3.82,0.51,7.55,1.43,11.12,2.75c7.18,2.59,13.67,6.9,18.79,12.33c1.28,1.36,2.48,2.79,3.59,4.27
		c1.11,1.48,2.12,3.03,3.05,4.62c1.86,3.17,3.34,6.54,4.4,10c0.08,0.25-0.06,0.51-0.31,0.59C90.89,57.24,90.66,57.14,90.56,56.93
		L90.56,56.93z"/>
</g>
<g id="Eye_Brow_White" class="st1">
	<path class="st5" d="M14.57,30.71c2.47-2.66,5.26-5.04,8.32-7.09c1.53-1.03,3.11-1.97,4.76-2.83c1.65-0.85,3.34-1.62,5.09-2.28
		c6.97-2.66,14.69-3.72,22.28-2.93c3.79,0.37,7.55,1.17,11.21,2.37c3.65,1.21,7.24,2.71,10.65,4.57c3.41,1.86,6.61,4.13,9.38,6.82
		c1.39,1.34,2.67,2.77,3.85,4.25c0.3,0.37,0.59,0.74,0.87,1.12l0.84,1.12c0.54,0.75,1.07,1.5,1.55,2.2l0.05,0.08
		c1.33,1.93,0.84,4.57-1.09,5.9c-1.7,1.17-3.96,0.93-5.38-0.47l-1.92-1.9l-0.92-0.91c-0.3-0.3-0.61-0.6-0.91-0.89
		c-1.22-1.17-2.42-2.31-3.64-3.44c-2.43-2.23-4.85-4.44-7.46-6.45c-2.6-2.01-5.44-3.75-8.49-5.06c-0.76-0.33-1.53-0.64-2.31-0.93
		c-0.78-0.29-1.57-0.56-2.36-0.81c-1.59-0.49-3.22-0.93-4.86-1.25c-6.56-1.36-13.47-1.27-20.16,0.37c-1.67,0.41-3.33,0.9-4.95,1.5
		c-1.63,0.59-3.24,1.26-4.81,2.03c-3.14,1.54-6.14,3.41-8.95,5.6l0,0c-0.2,0.16-0.5,0.12-0.66-0.08
		C14.4,31.13,14.42,30.88,14.57,30.71z"/>
</g>
<g id="Eye_liner_White" class="st1">
	<path class="st5" d="M92.08,67.55c-2.37,2.59-5.35,4.65-8.55,6.25c-3.2,1.6-6.64,2.74-10.15,3.5c-1.76,0.37-3.54,0.66-5.33,0.86
		c-0.45,0.05-0.9,0.09-1.35,0.13c-0.45,0.04-0.9,0.07-1.35,0.1l-0.68,0.04l-0.68,0.03l-0.68,0.02l-0.68,0
		c-3.61,0.03-7.23-0.28-10.79-0.95c-3.66-0.68-7.23-1.95-10.5-3.72c-3.28-1.77-6.27-4-8.91-6.55c-1.33-1.27-2.55-2.63-3.71-4.05
		c-1.16-1.41-2.21-2.9-3.19-4.43c-0.49-0.77-0.96-1.55-1.4-2.34c-0.44-0.8-0.86-1.61-1.25-2.43c-0.4-0.82-0.75-1.67-1.08-2.54
		c-0.13-0.35-0.26-0.71-0.38-1.07c0,0-10.65,0.47-12.43,0.6c1.69-0.59,6.53-2.16,8.2-2.71c1.67-0.56,3.35-1.11,4.92-1.74l1.63-0.65
		l0.67,1.88c0.24,0.68,0.57,1.43,0.94,2.15c0.37,0.72,0.77,1.44,1.19,2.15c0.83,1.42,1.78,2.79,2.76,4.13
		c0.98,1.33,2.05,2.61,3.14,3.84c1.1,1.23,2.28,2.38,3.49,3.48c2.43,2.19,5.09,4.11,7.93,5.64c2.84,1.54,5.86,2.68,9.02,3.38
		c3.24,0.73,6.56,1.18,9.89,1.39l0.63,0.04l0.63,0.02l0.63,0.03l0.63,0.02c0.42,0.01,0.84,0.02,1.26,0.02c0.42,0,0.84,0,1.26-0.01
		c1.68-0.03,3.35-0.12,5.03-0.29c3.35-0.33,6.67-0.96,9.92-1.96C85.98,70.81,89.13,69.43,92.08,67.55z"/>
</g>
<g id="eye_shadow_White" class="st1">
	<path class="st5" d="M90.56,56.93c-1.57-3.19-3.46-6.18-5.62-8.93c-1.08-1.37-2.23-2.68-3.44-3.92c-1.21-1.24-2.48-2.41-3.81-3.5
		c-5.31-4.38-11.49-7.47-17.99-9.1c-1.62-0.43-3.28-0.74-4.92-0.99c-0.83-0.12-1.65-0.22-2.48-0.3c-0.83-0.08-1.66-0.13-2.48-0.17
		c-3.31-0.15-6.63,0.19-9.85,0.86c-3.22,0.67-6.36,1.6-9.52,2.56c-1.58,0.48-3.16,0.98-4.77,1.51c-0.4,0.13-0.8,0.27-1.21,0.4
		l-1.22,0.41l-2.55,0.87c-2.22,0.75-4.62-0.43-5.38-2.65c-0.67-1.96,0.18-4.07,1.91-5.05l0.08-0.05c0.73-0.42,1.54-0.87,2.35-1.3
		l1.24-0.65c0.42-0.21,0.84-0.42,1.27-0.62c1.71-0.82,3.49-1.55,5.32-2.15c3.66-1.22,7.53-1.87,11.41-2.06
		c3.88-0.19,7.77,0.02,11.58,0.52c3.82,0.51,7.55,1.43,11.12,2.75c7.18,2.59,13.67,6.9,18.79,12.33c1.28,1.36,2.48,2.79,3.59,4.27
		c1.11,1.48,2.12,3.03,3.05,4.62c1.86,3.17,3.34,6.54,4.4,10c0.08,0.25-0.06,0.51-0.31,0.59C90.89,57.24,90.66,57.14,90.56,56.93
		L90.56,56.93z"/>
</g>
<g id="eye" class="st1">
	<g class="st2">
		<path class="st8" d="M90.9,68.02c-0.45,0-0.88-0.25-1.09-0.68c-0.03-0.06-2.97-5.95-8.86-12.15c-3.44-3.62-7.19-6.63-11.16-8.95
			c-4.94-2.89-10.23-4.72-15.72-5.43c-16.29-2.11-32.74,6.58-32.9,6.66c-0.59,0.32-1.33,0.09-1.65-0.5
			c-0.32-0.59-0.09-1.33,0.5-1.65c0.18-0.09,4.37-2.32,10.7-4.31c5.86-1.84,14.73-3.78,23.66-2.63c5.83,0.76,11.45,2.69,16.68,5.76
			c4.17,2.45,8.11,5.61,11.71,9.41c6.12,6.45,9.1,12.44,9.22,12.69c0.3,0.6,0.05,1.33-0.55,1.63C91.26,67.98,91.08,68.02,90.9,68.02
			z"/>
		<path class="st8" d="M55.65,68.42c-10.56,0-19.14-8.59-19.14-19.14c0-3.3,0.85-6.56,2.47-9.41c0.28-0.5,0.91-0.67,1.41-0.39
			c0.5,0.28,0.67,0.91,0.39,1.41c-1.44,2.55-2.2,5.45-2.2,8.4c0,9.41,7.66,17.07,17.07,17.07s17.07-7.66,17.07-17.07
			c0-0.57,0.46-1.03,1.03-1.03c0.57,0,1.03,0.46,1.03,1.03C74.8,59.83,66.21,68.42,55.65,68.42z"/>
		<path class="st8" d="M64.99,52.87c-2.07,5.21-8,7.76-13.2,5.69c-5.21-2.07-7.76-8-5.69-13.2c1.05-2.64,3.18-4.74,5.84-5.75
			c0.53-0.2,1.13,0.07,1.33,0.6c0.2,0.53-0.07,1.13-0.6,1.33c-2.12,0.8-3.81,2.47-4.65,4.58c-1.65,4.15,0.38,8.86,4.53,10.52
			c4.15,1.65,8.86-0.38,10.52-4.53c1.33-3.34,0.27-7.2-2.56-9.39c-0.45-0.35-0.53-1-0.18-1.45c0.35-0.45,1-0.53,1.45-0.18
			C65.33,43.84,66.65,48.68,64.99,52.87z"/>
		<path class="st8" d="M29.71,57.29c-0.34,0-0.68-0.14-0.92-0.42c-3.88-4.43-6.13-11.28-6.22-11.57c-0.21-0.64,0.14-1.32,0.78-1.53
			c0.64-0.21,1.32,0.14,1.53,0.78c0.03,0.09,2.2,6.68,5.74,10.72c0.44,0.51,0.39,1.27-0.11,1.72C30.28,57.19,30,57.29,29.71,57.29z"
			/>
		<path class="st8" d="M27.15,44.77c-0.05,0-0.1,0-0.15-0.01c-6.22-0.75-11.06-4.38-11.26-4.53c-0.53-0.41-0.64-1.17-0.23-1.7
			c0.41-0.53,1.17-0.64,1.7-0.23l0,0c0.04,0.03,4.53,3.39,10.08,4.05c0.67,0.08,1.14,0.69,1.06,1.35
			C28.28,44.31,27.75,44.77,27.15,44.77z"/>
		<path class="st8" d="M32.93,42.8c-0.1,0-0.2-0.01-0.31-0.04c-4.6-1.2-6.94-5.8-7.04-6c-0.3-0.6-0.06-1.33,0.54-1.63
			c0.6-0.3,1.33-0.06,1.63,0.54c0.03,0.06,1.98,3.82,5.48,4.74c0.65,0.17,1.04,0.83,0.87,1.48C33.97,42.44,33.47,42.8,32.93,42.8z"
			/>
		<path class="st8" d="M41.47,40.88c-0.16,0-0.31-0.03-0.47-0.09c-3.81-1.59-5.27-5.83-5.33-6.01c-0.21-0.64,0.13-1.33,0.77-1.54
			c0.64-0.21,1.32,0.13,1.54,0.76c0.02,0.05,1.19,3.38,3.96,4.54c0.62,0.26,0.91,0.97,0.65,1.59C42.4,40.6,41.95,40.88,41.47,40.88z
			"/>
	</g>
</g>
</svg>
