<svg id="Layer_1" data-name="Layer 1" xmlns="http://www.w3.org/2000/svg" viewBox="0 0 100 100"><defs><style>.cls-1{fill:#29abe2;}.cls-2{fill:#474747;}</style></defs><title>EyeshadowOFF-01</title><g id="eye_shadow" data-name="eye shadow"><path class="cls-1" d="M90.56,65.35a50.72,50.72,0,0,0-5.62-8.93A49.46,49.46,0,0,0,81.5,52.5,46.59,46.59,0,0,0,77.69,49a45.86,45.86,0,0,0-18-9.1,46.57,46.57,0,0,0-4.92-1c-.83-.12-1.65-.22-2.48-.3s-1.66-.13-2.48-.17A39.67,39.67,0,0,0,40,39.3c-3.22.67-6.36,1.6-9.52,2.56-1.58.48-3.16,1-4.77,1.51l-1.21.4-1.22.41-3.48,1.53c-2.22.75-8.38-4.39-9.77-8.81a74,74,0,0,1,51.6-3.11A48.7,48.7,0,0,1,80.39,46.12,50.07,50.07,0,0,1,84,50.39,48.5,48.5,0,0,1,87,55a47,47,0,0,1,4.4,10,.47.47,0,0,1-.31.59.47.47,0,0,1-.56-.25Z"/></g><g id="eye"><path class="cls-2" d="M90.9,68a1.21,1.21,0,0,1-1.09-.68A55.89,55.89,0,0,0,81,55.19a50.92,50.92,0,0,0-11.16-8.95,41.58,41.58,0,0,0-15.72-5.43c-16.29-2.11-32.74,6.58-32.9,6.66A1.22,1.22,0,1,1,20,45.32,68.57,68.57,0,0,1,30.72,41c5.86-1.84,14.73-3.78,23.66-2.63a44.07,44.07,0,0,1,16.68,5.76,53.62,53.62,0,0,1,11.71,9.41A56.8,56.8,0,0,1,92,66.24a1.22,1.22,0,0,1-.55,1.63A1,1,0,0,1,90.9,68Z"/><path class="cls-2" d="M55.65,68.42A19.14,19.14,0,0,1,39,39.87a1,1,0,1,1,1.8,1,17.07,17.07,0,1,0,31.94,8.4,1,1,0,1,1,2.06,0A19.14,19.14,0,0,1,55.65,68.42Z"/><path class="cls-2" d="M65,52.87a10.16,10.16,0,1,1-13-13.26,1,1,0,1,1,.73,1.93,8.1,8.1,0,1,0,7.84,1.18,1,1,0,1,1,1.27-1.63A10.21,10.21,0,0,1,65,52.87Z"/><path class="cls-2" d="M29.71,57.29a1.21,1.21,0,0,1-.92-.42c-3.88-4.43-6.13-11.28-6.22-11.57a1.21,1.21,0,0,1,2.31-.75c0,.09,2.2,6.68,5.74,10.72A1.23,1.23,0,0,1,30.51,57,1.21,1.21,0,0,1,29.71,57.29Z"/><path class="cls-2" d="M27.15,44.77H27a25.72,25.72,0,0,1-11.26-4.53,1.21,1.21,0,0,1,1.47-1.93h0a23.48,23.48,0,0,0,10.08,4.05,1.21,1.21,0,0,1-.14,2.42Z"/><path class="cls-2" d="M32.93,42.8a1.15,1.15,0,0,1-.31,0c-4.6-1.2-6.94-5.8-7-6a1.21,1.21,0,0,1,2.17-1.09c0,.06,2,3.82,5.48,4.74a1.21,1.21,0,0,1,.87,1.48A1.2,1.2,0,0,1,32.93,42.8Z"/><path class="cls-2" d="M41.47,40.88a1.31,1.31,0,0,1-.47-.09c-3.81-1.59-5.27-5.83-5.33-6A1.22,1.22,0,0,1,38,34s1.19,3.38,4,4.54a1.22,1.22,0,0,1-.47,2.34Z"/></g></svg>