<?xml version="1.0" encoding="utf-8"?>
<!-- Generator: Adobe Illustrator 23.0.0, SVG Export Plug-In . SVG Version: 6.00 Build 0)  -->
<svg version="1.1" xmlns="http://www.w3.org/2000/svg" xmlns:xlink="http://www.w3.org/1999/xlink" x="0px" y="0px"
	 viewBox="0 0 87.1 51.63" style="enable-background:new 0 0 87.1 51.63;" xml:space="preserve">
<style type="text/css">
	.st0{fill:#2EC6F3;}
	.st1{fill:none;stroke:#000000;stroke-width:0.5;stroke-miterlimit:10;}
	.st2{fill:none;stroke:#2EC6F3;stroke-width:0.5;stroke-miterlimit:10;}
	.st3{fill:none;stroke:#FFFFFF;stroke-width:0.5;stroke-miterlimit:10;}
	.st4{fill:#FFFFFF;}
</style>
<g id="Layer_3">
	<path class="st0" d="M77.09,51.61H10c-5.5,0-10-4.5-10-10V10.03c0-5.5,4.5-10,10-10h67.09c5.5,0,10,4.5,10,10v31.58
		C87.09,47.11,82.59,51.61,77.09,51.61z"/>
</g>
<g id="Layer_2">
	<path class="st1" d="M76.36,32.42V22.15c0-1.14-0.92-2.06-2.05-2.06h-7.29h-5.18H48.3h-6.39h-0.06h-2.31h-0.56H35.8h-0.19
		c-0.07,0-0.14,0-0.2,0.01c-0.44,0.04-0.83,0.22-1.14,0.48c-0.44,0.38-0.72,0.94-0.72,1.57v2.2v19.01v4.29
		c0,1.14,0.92,2.06,2.06,2.06h38.7c1.13,0,2.05-0.92,2.05-2.06v-7.96"/>
	<path class="st1" d="M72.57,36.23V24.36c0-1.14-0.92-2.06-2.06-2.06H42.08h-2.65H39.4c-1.13,0-2.06,0.92-2.06,2.06v19v1.96
		c0,1.13,0.93,2.06,2.06,2.06h25.43"/>
	<path class="st1" d="M29.67,13.83c-2.89-2.15-6.47-3.43-10.35-3.43C9.76,10.4,2,18.16,2,27.72s7.76,17.32,17.32,17.32
		c2.85,0,5.54-0.69,7.92-1.91"/>
	<path class="st1" d="M26.15,25.6h-5.22c-0.85,0-1.54-0.69-1.54-1.54v-3.19c0-0.85,0.69-1.54,1.54-1.54h5.24"/>
	<path class="st1" d="M11.3,24.35v2.74c-2.52-0.25-4.49-2.37-4.49-4.97c0-0.61,0.1-1.19,0.3-1.72l2.46,1.22
		c-0.03,0.16-0.05,0.34-0.05,0.5C9.52,23.21,10.29,24.13,11.3,24.35z"/>
	<path class="st1" d="M11.8,19.85c-0.73,0-1.39,0.35-1.8,0.87l-2.46-1.21c0.88-1.43,2.46-2.38,4.25-2.38c1.86,0,3.48,1.02,4.34,2.53
		l-2.51,1.1C13.22,20.21,12.54,19.85,11.8,19.85z"/>
	<path class="st1" d="M16.79,22.12c0,2.59-1.97,4.71-4.49,4.97v-2.74c1.02-0.22,1.78-1.13,1.78-2.23c0-0.16-0.01-0.3-0.04-0.45
		v-0.01l2.5-1.1C16.7,21.05,16.79,21.57,16.79,22.12z"/>
	<path class="st1" d="M67.02,20.09v-4.16c0-1.14-0.92-2.06-2.06-2.06h-7.94h-5.7h-23.1c-1.13,0-2.06,0.92-2.06,2.06v3.4V41.3
		c0,1.14,0.93,2.06,2.06,2.06h5.33"/>
	<path class="st1" d="M48.3,20.09c0.16-0.68,0.76-1.18,1.49-1.18h10.56c0.73,0,1.33,0.5,1.49,1.18"/>
	<path class="st1" d="M33.55,24.35c-0.57-0.78-0.91-1.75-0.91-2.79c0-0.58,0.1-1.13,0.29-1.64l1.34,0.66"/>
	<path class="st1" d="M35.8,20.09c0.39-0.42,0.96-0.69,1.59-0.69c0.63,0,1.2,0.26,1.59,0.69"/>
	<path class="st1" d="M35.41,20.1l-2.07-1.02c0.84-1.36,2.34-2.27,4.05-2.27c1.77,0,3.31,0.97,4.13,2.41l-1.98,0.87"/>
	<path class="st1" d="M41.85,20.09l0.05-0.02c0,0.01,0,0.01,0.01,0.02"/>
	<path class="st1" d="M24.21,11.1h0.01c2.87-5.85,8.89-9.88,15.85-9.88c8.02,0,14.78,5.34,16.95,12.65"/>
	<polyline class="st1" points="28.82,13.24 28.82,12.14 51.32,12.14 51.32,13.87 	"/>
	<g>
		<path class="st3" d="M69.49,46.5l-3.6-3.6l14.16-14.16c0.26-0.26,0.67-0.26,0.93,0l2.67,2.67c0.26,0.26,0.26,0.67,0,0.93
			L69.49,46.5z"/>
		<path class="st3" d="M83.87,31.05l-2.56-2.56c-0.23-0.23-0.23-0.61,0-0.84l1.03-1.03c0.23-0.23,0.61-0.23,0.84,0l2.56,2.56
			c0.23,0.23,0.23,0.61,0,0.84l-1.03,1.03C84.48,31.28,84.1,31.28,83.87,31.05z"/>
		<g>
			<path class="st4" d="M65.71,44.07l2.6,2.6l-3.56,0.96L65.71,44.07 M65.45,43.11l-1.26,4.71c-0.05,0.2,0.1,0.39,0.3,0.39
				c0.03,0,0.05,0,0.08-0.01l4.71-1.26L65.45,43.11L65.45,43.11z"/>
		</g>
	</g>
</g>
</svg>
