<?xml version="1.0" encoding="utf-8"?>
<!-- Generator: Adobe Illustrator 23.0.0, SVG Export Plug-In . SVG Version: 6.00 Build 0)  -->
<svg version="1.1" id="Layer_1" xmlns="http://www.w3.org/2000/svg" xmlns:xlink="http://www.w3.org/1999/xlink" x="0px" y="0px"
	 viewBox="0 0 216.97 217" style="enable-background:new 0 0 216.97 217;" xml:space="preserve">
<g>
	<path d="M198.58,48.13l-3.24,1.05l-17.3,1.51l-4.85,7.8l-3.55-1.11l-13.75-12.42l-2.03-6.44l-2.66-6.88l-8.63-7.75l-10.22-1.99
		l-0.23,4.65l10.02,9.75l4.89,5.77l-5.49,2.87l-4.49-1.31l-6.71-2.8l0.23-5.4l-8.8-3.61l-2.94,12.71l-8.88,1.99l0.88,7.11
		l11.57,2.23l1.99-11.34l9.55,1.39l4.41,2.59h7.12l4.89,9.75l12.88,13.12l-0.94,5.09l-10.39-1.36l-18.01,9.11l-12.95,15.52
		l-1.69,6.88h-4.65l-8.63-3.98l-8.43,3.98l2.09,8.87l3.68-4.21l6.44-0.21l-0.48,8l5.33,1.55l5.34,5.97l8.69-2.43l9.96,1.55
		l11.54,3.1l5.77,0.67l9.75,11.09l18.85,11.1l-12.17,23.27l-12.88,6l-4.9,13.29l-18.61,12.45l-1.99,7.18
		c47.62-11.47,83.03-54.24,83.03-105.36C216.97,86.18,210.19,65.37,198.58,48.13L198.58,48.13z M198.58,48.13"/>
	<path d="M120.95,165.2l-7.89-14.63l7.25-15.11l-7.25-2.19l-8.13-8.17l-18.05-4.04l-6-12.55v7.45h-2.63L62.7,94.87V77.54L51.3,59.02
		l-18.11,3.24H21.02l-6.14-4.05l7.82-6.16l-7.79,1.79C5.5,69.88,0,88.53,0,108.51C0,168.4,48.57,217,108.46,217
		c4.63,0,9.14-0.41,13.63-0.94l-1.15-13.16c0,0,4.99-19.53,4.99-20.17C125.94,182.06,120.95,165.2,120.95,165.2L120.95,165.2z
		 M120.95,165.2"/>
	<path d="M40.3,34.98l19.29-2.67l8.88-4.89l10.02,2.9l15.96-0.92l5.46-8.6l7.99,1.32l19.36-1.79l5.33-5.91l7.55-5.03L150.76,11
		l3.91-0.58C140.64,3.82,125.02,0,108.46,0C74.81,0,44.69,15.35,24.82,39.47h0.03L40.3,34.98z M113.06,10.79l11.09-6.1l7.11,4.12
		l-10.32,7.82l-9.82,1.01l-4.42-2.9L113.06,10.79z M80.24,11.67l4.89,2.06l6.41-2.06l3.47,6.07l-14.77,3.88l-7.11-4.18
		C73.12,17.44,80.06,12.99,80.24,11.67L80.24,11.67z M80.24,11.67"/>
</g>
</svg>
