<?xml version="1.0" encoding="utf-8"?>
<!-- Generator: Adobe Illustrator 23.0.0, SVG Export Plug-In . SVG Version: 6.00 Build 0)  -->
<svg version="1.1" xmlns="http://www.w3.org/2000/svg" xmlns:xlink="http://www.w3.org/1999/xlink" x="0px" y="0px"
	 viewBox="0 0 87.1 51.63" style="enable-background:new 0 0 87.1 51.63;" xml:space="preserve">
<style type="text/css">
	.st0{fill:#2EC6F3;}
	.st1{fill:none;stroke:#000000;stroke-width:0.5;stroke-miterlimit:10;}
	.st2{fill:none;stroke:#2EC6F3;stroke-width:0.5;stroke-miterlimit:10;}
	.st3{fill:none;stroke:#FFFFFF;stroke-width:0.5;stroke-miterlimit:10;}
	.st4{fill:#FFFFFF;}
</style>
<g id="Layer_3">
</g>
<g id="Layer_2">
	<path class="st1" d="M64.95,32.46v7.96c0,1.14-0.92,2.06-2.06,2.06H24.19c-1.14,0-2.06-0.92-2.06-2.06v-25.5
		c0-1.14,0.92-2.06,2.06-2.06h38.69c1.14,0,2.06,0.92,2.06,2.06v10.27"/>
	<path class="st1" d="M53.42,40.15H27.99c-1.14,0-2.06-0.92-2.06-2.06V17.13c0-1.14,0.92-2.06,2.06-2.06H59.1
		c1.14,0,2.06,0.92,2.06,2.06V29"/>
	<g>
		<path class="st2" d="M58.07,39.28l-3.6-3.6l14.16-14.16c0.26-0.26,0.67-0.26,0.93,0l2.67,2.67c0.26,0.26,0.26,0.67,0,0.93
			L58.07,39.28z"/>
		<path class="st2" d="M72.45,23.83l-2.56-2.56c-0.23-0.23-0.23-0.61,0-0.84l1.03-1.03c0.23-0.23,0.61-0.23,0.84,0l2.56,2.56
			c0.23,0.23,0.23,0.61,0,0.84l-1.03,1.03C73.06,24.06,72.68,24.06,72.45,23.83z"/>
		<g>
			<path class="st0" d="M54.29,36.85l2.6,2.6l-3.56,0.96L54.29,36.85 M54.03,35.88l-1.26,4.71c-0.05,0.2,0.1,0.39,0.3,0.39
				c0.03,0,0.05,0,0.08-0.01l4.71-1.26L54.03,35.88L54.03,35.88z"/>
		</g>
	</g>
</g>
</svg>
