<?xml version="1.0" encoding="utf-8"?>
<!-- Generator: Adobe Illustrator 23.0.0, SVG Export Plug-In . SVG Version: 6.00 Build 0)  -->
<svg version="1.1" xmlns="http://www.w3.org/2000/svg" xmlns:xlink="http://www.w3.org/1999/xlink" x="0px" y="0px"
	 viewBox="0 0 87.1 51.63" style="enable-background:new 0 0 87.1 51.63;" xml:space="preserve">
<style type="text/css">
	.st0{fill:#2EC6F3;}
	.st1{fill:none;stroke:#000000;stroke-width:0.5;stroke-miterlimit:10;}
	.st2{fill:none;stroke:#2EC6F3;stroke-width:0.5;stroke-miterlimit:10;}
	.st3{fill:none;stroke:#FFFFFF;stroke-width:0.5;stroke-miterlimit:10;}
	.st4{fill:#FFFFFF;}
</style>
<g id="Layer_3">
</g>
<g id="Layer_2">
	<path class="st1" d="M62.06,22.72c-1.71-7.97-8.79-13.95-17.28-13.95c-9.76,0-17.67,7.91-17.67,17.67S35.03,44.1,44.78,44.1
		c8.53,0,15.65-6.04,17.3-14.08"/>
	<polyline class="st1" points="51.7,33.19 33.53,33.19 33.53,19.69 56.03,19.69 56.03,28.69 	"/>
	<g>
		<path class="st2" d="M52.68,39.47l-3.6-3.6l14.16-14.16c0.26-0.26,0.67-0.26,0.93,0l2.67,2.67c0.26,0.26,0.26,0.67,0,0.93
			L52.68,39.47z"/>
		<path class="st2" d="M67.06,24.02l-2.56-2.56c-0.23-0.23-0.23-0.61,0-0.84l1.03-1.03c0.23-0.23,0.61-0.23,0.84,0l2.56,2.56
			c0.23,0.23,0.23,0.61,0,0.84l-1.03,1.03C67.67,24.25,67.3,24.25,67.06,24.02z"/>
		<g>
			<path class="st0" d="M48.9,37.04l2.6,2.6l-3.56,0.96L48.9,37.04 M48.64,36.07l-1.26,4.71c-0.05,0.2,0.1,0.39,0.3,0.39
				c0.03,0,0.05,0,0.08-0.01l4.71-1.26L48.64,36.07L48.64,36.07z"/>
		</g>
	</g>
</g>
</svg>
