<?xml version="1.0" encoding="utf-8"?>
<!-- Generator: Adobe Illustrator 23.0.0, SVG Export Plug-In . SVG Version: 6.00 Build 0)  -->
<svg version="1.1" xmlns="http://www.w3.org/2000/svg" xmlns:xlink="http://www.w3.org/1999/xlink" x="0px" y="0px"
	 viewBox="0 0 87.1 51.63" style="enable-background:new 0 0 87.1 51.63;" xml:space="preserve">
<style type="text/css">
	.st0{fill:#2EC6F3;}
	.st1{fill:none;stroke:#000000;stroke-width:0.5;stroke-miterlimit:10;}
	.st2{fill:none;stroke:#2EC6F3;stroke-width:0.5;stroke-miterlimit:10;}
	.st3{fill:none;stroke:#FFFFFF;stroke-width:0.5;stroke-miterlimit:10;}
	.st4{fill:#FFFFFF;}
</style>
<g id="Layer_3">
</g>
<g id="Layer_2">
	<path class="st1" d="M34.06,13.12c-2.89-2.15-6.47-3.43-10.35-3.43c-9.57,0-17.32,7.76-17.32,17.32s7.76,17.32,17.32,17.32
		c2.85,0,5.54-0.69,7.92-1.91"/>
	<path class="st1" d="M30.53,24.89h-5.22c-0.85,0-1.54-0.69-1.54-1.54v-3.19c0-0.85,0.69-1.54,1.54-1.54h5.24"/>
	<path class="st1" d="M15.69,23.64v2.74c-2.52-0.25-4.49-2.37-4.49-4.97c0-0.61,0.1-1.19,0.3-1.72l2.46,1.22
		c-0.03,0.16-0.05,0.34-0.05,0.5C13.91,22.5,14.67,23.42,15.69,23.64z"/>
	<path class="st1" d="M16.19,19.14c-0.73,0-1.39,0.35-1.8,0.87l-2.46-1.21c0.88-1.43,2.46-2.38,4.25-2.38
		c1.86,0,3.48,1.02,4.34,2.53l-2.51,1.1C17.6,19.5,16.93,19.14,16.19,19.14z"/>
	<path class="st1" d="M21.17,21.41c0,2.59-1.97,4.71-4.49,4.97v-2.74c1.02-0.22,1.78-1.13,1.78-2.23c0-0.16-0.01-0.3-0.04-0.45
		v-0.01l2.5-1.1C21.09,20.34,21.17,20.87,21.17,21.41z"/>
	<path class="st1" d="M71.41,34.12v6.47c0,1.14-0.92,2.06-2.06,2.06H32.61c-1.14,0-2.06-0.92-2.06-2.06V15.22
		c0-1.14,0.92-2.06,2.06-2.06h36.74c1.14,0,2.06,0.92,2.06,2.06V26.9"/>
	<path class="st1" d="M64.74,24.17H54.18c-0.85,0-1.54-0.69-1.54-1.54v-2.89c0-0.85,0.69-1.54,1.54-1.54h10.56
		c0.85,0,1.54,0.69,1.54,1.54v2.89C66.28,23.48,65.59,24.17,64.74,24.17z"/>
	<path class="st1" d="M41.31,22.97v2.61c-2.4-0.24-4.28-2.26-4.28-4.73c0-0.58,0.1-1.13,0.29-1.64l2.34,1.16
		c-0.03,0.15-0.05,0.32-0.05,0.48C39.61,21.89,40.34,22.76,41.31,22.97z"/>
	<path class="st1" d="M41.78,18.69c-0.7,0-1.32,0.33-1.71,0.83l-2.34-1.15c0.84-1.36,2.34-2.27,4.05-2.27
		c1.77,0,3.31,0.97,4.13,2.41l-2.39,1.05C43.13,19.03,42.49,18.69,41.78,18.69z"/>
	<path class="st1" d="M46.53,20.85c0,2.47-1.88,4.49-4.28,4.73v-2.61c0.97-0.21,1.7-1.08,1.7-2.12c0-0.15-0.01-0.29-0.04-0.43v-0.01
		l2.38-1.05C46.45,19.83,46.53,20.33,46.53,20.85z"/>
	<g>
		<path class="st2" d="M64.39,40.95l-3.6-3.6l14.16-14.16c0.26-0.26,0.67-0.26,0.93,0l2.67,2.67c0.26,0.26,0.26,0.67,0,0.93
			L64.39,40.95z"/>
		<path class="st2" d="M78.77,25.5l-2.56-2.56c-0.23-0.23-0.23-0.61,0-0.84l1.03-1.03c0.23-0.23,0.61-0.23,0.84,0l2.56,2.56
			c0.23,0.23,0.23,0.61,0,0.84l-1.03,1.03C79.38,25.74,79.01,25.74,78.77,25.5z"/>
		<g>
			<path class="st0" d="M60.61,38.52l2.6,2.6l-3.56,0.96L60.61,38.52 M60.35,37.56l-1.26,4.71c-0.05,0.2,0.1,0.39,0.3,0.39
				c0.03,0,0.05,0,0.08-0.01l4.71-1.26L60.35,37.56L60.35,37.56z"/>
		</g>
	</g>
</g>
</svg>
