<?xml version="1.0" encoding="utf-8"?>
<!-- Generator: Adobe Illustrator 23.0.0, SVG Export Plug-In . SVG Version: 6.00 Build 0)  -->
<svg version="1.1" id="Layer_2" xmlns="http://www.w3.org/2000/svg" xmlns:xlink="http://www.w3.org/1999/xlink" x="0px" y="0px"
	 viewBox="0 0 4.98 4.98" style="enable-background:new 0 0 4.98 4.98;" xml:space="preserve">
<style type="text/css">
	.st0{fill:#1FC3F3;}
</style>
<path class="st0" d="M2.49,0C1.12,0,0,1.12,0,2.49c0,1.37,1.12,2.49,2.49,2.49c1.37,0,2.49-1.12,2.49-2.49C4.98,1.12,3.86,0,2.49,0z
	"/>
<g>
	<path d="M2.11,3.7H1.28C1.23,3.7,1.2,3.66,1.2,3.62V1.36c0-0.04,0.04-0.08,0.08-0.08h0.83c0.04,0,0.08,0.04,0.08,0.08v2.26
		C2.19,3.66,2.15,3.7,2.11,3.7z M1.36,3.54h0.67v-2.1H1.36V3.54z"/>
	<path d="M3.7,3.7H2.88C2.83,3.7,2.8,3.66,2.8,3.62V1.36c0-0.04,0.04-0.08,0.08-0.08H3.7c0.04,0,0.08,0.04,0.08,0.08v2.26
		C3.78,3.66,3.75,3.7,3.7,3.7z M2.96,3.54h0.67v-2.1H2.96V3.54z"/>
</g>
</svg>
