<?xml version="1.0" encoding="utf-8"?>
<!-- Generator: Adobe Illustrator 23.0.0, SVG Export Plug-In . SVG Version: 6.00 Build 0)  -->
<svg version="1.1" id="Layer_2" xmlns="http://www.w3.org/2000/svg" xmlns:xlink="http://www.w3.org/1999/xlink" x="0px" y="0px"
	 viewBox="0 0 4.98 4.98" style="enable-background:new 0 0 4.98 4.98;" xml:space="preserve">
<style type="text/css">
	.st0{fill:#1FC3F3;}
	.st1{fill:none;stroke:#000000;stroke-width:0.18;stroke-linecap:round;stroke-linejoin:round;stroke-miterlimit:10;}
</style>
<path class="st0" d="M2.49,0C1.12,0,0,1.12,0,2.49c0,1.37,1.12,2.49,2.49,2.49c1.37,0,2.49-1.12,2.49-2.49C4.98,1.12,3.86,0,2.49,0z
	"/>
<g>
	<g>
		<path d="M3.04,4.37c-0.02,0-0.04-0.01-0.06-0.02L1.9,3.23c-0.03-0.03-0.03-0.08,0-0.11c0.03-0.03,0.08-0.03,0.11,0l0.94,0.97V2.12
			c0-0.04,0.04-0.08,0.08-0.08c0.04,0,0.08,0.04,0.08,0.08v2.16c0,0.03-0.02,0.06-0.05,0.07C3.06,4.36,3.05,4.37,3.04,4.37z"/>
		<path d="M1.33,2.86c-0.04,0-0.08-0.04-0.08-0.08V2.04c0-0.04,0.03-0.08,0.08-0.08l0.59-0.02l1.06-1.09C3,0.83,3.04,0.82,3.07,0.84
			C3.1,0.85,3.12,0.88,3.12,0.91v0.25c0,0.04-0.04,0.08-0.08,0.08c-0.04,0-0.08-0.04-0.08-0.08V1.11L2.01,2.07
			C2,2.09,1.98,2.1,1.96,2.1L1.41,2.12v0.66C1.41,2.82,1.38,2.86,1.33,2.86z"/>
	</g>
	<path d="M0.73,4.02C0.71,4.02,0.69,4.02,0.67,4c-0.03-0.03-0.03-0.08,0-0.11l3.25-3.25c0.03-0.03,0.08-0.03,0.11,0
		s0.03,0.08,0,0.11L0.79,4C0.77,4.02,0.75,4.02,0.73,4.02z"/>
</g>
</svg>
