<?xml version="1.0" encoding="utf-8"?>
<!-- Generator: Adobe Illustrator 23.0.0, SVG Export Plug-In . SVG Version: 6.00 Build 0)  -->
<svg version="1.1" id="Layer_3" xmlns="http://www.w3.org/2000/svg" xmlns:xlink="http://www.w3.org/1999/xlink" x="0px" y="0px"
	 viewBox="0 0 4.98 4.98" style="enable-background:new 0 0 4.98 4.98;" xml:space="preserve">
<style type="text/css">
	.st0{fill:#1FC3F3;}
	.st1{fill:none;stroke:#000000;stroke-width:0.18;stroke-linecap:round;stroke-linejoin:round;stroke-miterlimit:10;}
</style>
<path class="st0" d="M2.49,0C1.12,0,0,1.12,0,2.49c0,1.37,1.12,2.49,2.49,2.49c1.37,0,2.49-1.12,2.49-2.49C4.98,1.12,3.86,0,2.49,0z
	"/>
<path d="M3.07,0.84C3.04,0.82,3,0.83,2.98,0.85L1.92,1.94L1.33,1.96C1.29,1.96,1.25,2,1.25,2.04v1.11c0,0.04,0.03,0.08,0.08,0.08
	l0.59,0.02l1.06,1.09C3,4.36,3.04,4.37,3.07,4.36C3.1,4.35,3.12,4.32,3.12,4.28V0.91C3.12,0.88,3.1,0.85,3.07,0.84z M2.96,4.09
	L2.01,3.12C2,3.11,1.98,3.1,1.96,3.1L1.41,3.08V2.12L1.96,2.1C1.98,2.1,2,2.09,2.01,2.07l0.94-0.97V4.09z"/>
<path class="st1" d="M4.06,3.52c0.19-0.28,0.3-0.62,0.3-0.98c0-0.33-0.1-0.64-0.26-0.9"/>
<path class="st1" d="M3.8,1.78C3.93,2,4.02,2.26,4.02,2.54c0,0.31-0.1,0.6-0.27,0.84"/>
<path class="st1" d="M3.5,1.95c0.11,0.17,0.19,0.37,0.19,0.59c0,0.25-0.1,0.48-0.24,0.67"/>
<path class="st1" d="M3.75,3.38c0.17-0.24,0.27-0.53,0.27-0.84C4.02,2.26,3.93,2,3.8,1.78"/>
</svg>
