<?xml version="1.0" encoding="utf-8"?>
<!-- Generator: Adobe Illustrator 23.0.0, SVG Export Plug-In . SVG Version: 6.00 Build 0)  -->
<svg version="1.1" id="Layer_1" xmlns="http://www.w3.org/2000/svg" xmlns:xlink="http://www.w3.org/1999/xlink" x="0px" y="0px"
	 viewBox="0 0 216.6 216.6" style="enable-background:new 0 0 216.6 216.6;" xml:space="preserve">
<style type="text/css">
	.st0{fill-rule:evenodd;clip-rule:evenodd;}
	.st1{fill:#1EB5E1;}
</style>
<path class="st0" d="M216.6,108.3C216.6,48.5,168.09,0,108.3,0C48.5,0,0,48.5,0,108.3c0,59.79,48.5,108.3,108.3,108.3
	C168.09,216.6,216.6,168.09,216.6,108.3 M9.86,108.3c0-54.37,44.08-98.44,98.44-98.44s98.44,44.08,98.44,98.44
	c0,54.36-44.08,98.44-98.44,98.44S9.86,162.67,9.86,108.3"/>
<path class="st1" d="M155.57,141.31l-15.82-15.82c4.16-6.51,6.66-14.2,6.66-22.5c0-23.1-18.72-41.82-41.82-41.82
	c-23.1,0-41.82,18.72-41.82,41.82s18.72,41.82,41.82,41.82c8.3,0,15.99-2.49,22.49-6.66l15.82,15.82c3.5,3.5,9.17,3.5,12.67,0
	C159.07,150.48,159.07,144.81,155.57,141.31z M104.59,132.87c-16.5,0-29.87-13.37-29.87-29.87c0-16.49,13.38-29.87,29.87-29.87
	c16.5,0,29.87,13.38,29.87,29.87C134.46,119.5,121.09,132.87,104.59,132.87z"/>
</svg>
