<?xml version="1.0" encoding="utf-8"?>
<!-- Generator: Adobe Illustrator 23.0.0, SVG Export Plug-In . SVG Version: 6.00 Build 0)  -->
<svg version="1.1" id="Layer_1" xmlns="http://www.w3.org/2000/svg" xmlns:xlink="http://www.w3.org/1999/xlink" x="0px" y="0px"
	 viewBox="0 0 216.6 216.6" style="enable-background:new 0 0 216.6 216.6;" xml:space="preserve">
<style type="text/css">
	.st0{fill-rule:evenodd;clip-rule:evenodd;}
	.st1{fill:none;stroke:#1BB4E0;stroke-width:13;stroke-linecap:round;stroke-linejoin:round;stroke-miterlimit:10;}
</style>
<path class="st0" d="M216.6,108.3C216.6,48.5,168.09,0,108.3,0C48.5,0,0,48.5,0,108.3c0,59.79,48.5,108.3,108.3,108.3
	C168.09,216.6,216.6,168.09,216.6,108.3 M9.86,108.3c0-54.37,44.08-98.44,98.44-98.44s98.44,44.08,98.44,98.44
	c0,54.37-44.08,98.44-98.44,98.44S9.86,162.67,9.86,108.3"/>
<path class="st1" d="M116.38,51.36l15.52,30.02l33.34,5.49c7.28,1.2,10.18,10.11,4.99,15.36l-23.75,24.04l5.09,33.41
	c1.11,7.3-6.47,12.81-13.07,9.5l-30.2-15.16l-30.2,15.16c-6.6,3.31-14.18-2.2-13.07-9.5l5.09-33.41l-23.75-24.04
	c-5.19-5.25-2.29-14.17,4.99-15.36l33.34-5.49l15.52-30.02C103.61,44.81,112.99,44.81,116.38,51.36z"/>
</svg>
