<?xml version="1.0" encoding="utf-8"?>
<!-- Generator: Adobe Illustrator 23.0.0, SVG Export Plug-In . SVG Version: 6.00 Build 0)  -->
<svg version="1.1" id="Layer_1" xmlns="http://www.w3.org/2000/svg" xmlns:xlink="http://www.w3.org/1999/xlink" x="0px" y="0px"
	 viewBox="0 0 216.6 216.6" style="enable-background:new 0 0 216.6 216.6;" xml:space="preserve">
<style type="text/css">
	.st0{fill-rule:evenodd;clip-rule:evenodd;fill:#1EB5E1;}
	.st1{fill:#FFFFFF;stroke:#FFFFFF;stroke-width:13;stroke-linecap:round;stroke-linejoin:round;stroke-miterlimit:10;}
</style>
<ellipse transform="matrix(0.0312 -0.9995 0.9995 0.0312 -3.3274 213.1705)" class="st0" cx="108.3" cy="108.3" rx="108.3" ry="108.3"/>
<path class="st1" d="M116.38,51.36l15.52,30.02l33.34,5.49c7.28,1.2,10.18,10.11,4.99,15.36l-23.75,24.04l5.09,33.41
	c1.11,7.3-6.47,12.81-13.07,9.5l-30.2-15.16l-30.2,15.16c-6.6,3.31-14.18-2.2-13.07-9.5l5.09-33.41l-23.75-24.04
	c-5.19-5.25-2.29-14.17,4.99-15.36l33.34-5.49l15.52-30.02C103.61,44.81,112.99,44.81,116.38,51.36z"/>
</svg>
