<svg id="Layer_1" data-name="Layer 1" xmlns="http://www.w3.org/2000/svg" viewBox="0 0 200 200"><defs><style>.cls-1{fill:none;stroke:#000;stroke-miterlimit:10;stroke-width:4px;}.cls-2{fill:#929292;}</style></defs><title>345</title><path class="cls-1" d="M22.87,174c.77-2.94,1.33-5.18,1.95-7.42,2.77-10.11,5.5-20.25,8.41-30.33a8.92,8.92,0,0,0-.81-7C21,106.34,20.16,83,30.56,59.5c13.29-30,43.74-48.56,76.54-47.66,35.75,1,66.85,26.1,75.49,60,6.62,26,1.47,49.88-15.34,71a78.33,78.33,0,0,1-38.89,26.57C108,175.68,88.18,174.06,69,165a10,10,0,0,0-7.42-.74c-11.62,3.16-23.3,6.13-35,9.14C25.62,173.62,24.62,173.73,22.87,174Z"/><path class="cls-2" d="M129.52,133c-2.53-.42-5.12-.65-7.59-1.31A77.26,77.26,0,0,1,82.46,107,189,189,0,0,1,69.23,89.49a29.07,29.07,0,0,1-5-15.32,23.39,23.39,0,0,1,7.56-18.63c3.26-3.1,7.12-3,11-2.07a4.56,4.56,0,0,1,2.56,2.39c2.53,5.7,5,11.45,7.21,17.28A5.1,5.1,0,0,1,92.07,77a47.11,47.11,0,0,1-4.33,5.86c-2,2.44-2.21,3.22-.69,5.82a56.16,56.16,0,0,0,28.26,24.15,4.25,4.25,0,0,0,5.43-1.37c1.86-2.34,3.72-4.68,5.65-7s2.65-2.53,5.28-1.35c5.45,2.44,10.81,5.09,16.2,7.65a3.83,3.83,0,0,1,2.27,3.95c-.14,5.62-1.91,10.36-6.86,13.55C139.09,131,134.7,133,129.52,133Z"/></svg>