<svg id="Layer_1" data-name="Layer 1" xmlns="http://www.w3.org/2000/svg" viewBox="0 0 100 100"><defs><style>.cls-1{fill:#29abe2;}.cls-2{fill:#474747;}.cls-3{fill:#fff;}</style></defs><title>CorectionOFF</title><g id="Squer"><path class="cls-1" d="M85.33,98H14.67A12.71,12.71,0,0,1,2,85.33V14.67A12.71,12.71,0,0,1,14.67,2H85.34A12.7,12.7,0,0,1,98,14.67V85.34A12.7,12.7,0,0,1,85.33,98Z"/></g><path class="cls-2" d="M48.85,76.38a17.87,17.87,0,0,1-7.2-1.49c-4.46-2-7.36-5.93-8.38-11.36-.48-2.57-.19-5.84.89-10,3.07-11.8,11.73-26.81,14.31-31.12v0c.05-.08.11-.17.15-.25s.16-.26.23-.36l.93-1.45.9,1.46.16.27.2.33v0c2.58,4.32,11.24,19.32,14.32,31.12,1.07,4.14,1.36,7.41.88,10h0c-1,5.42-3.91,9.35-8.37,11.36a18,18,0,0,1-8.12,1.46C49.53,76.37,49.22,76.38,48.85,76.38Zm.92-51.9c-3.06,5.19-10.71,18.83-13.52,29.61-1,3.78-1.27,6.82-.85,9,2.1,11.25,12.28,11.19,14.3,11.06h.14c2,.13,12.2.18,14.3-11.06h0c.41-2.22.13-5.26-.85-9C60.48,43.31,52.82,29.67,49.77,24.48Z"/><path class="cls-2" d="M54.52,71.52A12,12,0,0,1,39.43,55.25,15.41,15.41,0,0,0,54.52,71.52Z"/><path class="cls-3" d="M50,73.67A46.79,46.79,0,0,0,84.59,58.44a38.81,38.81,0,0,1-69.18,0A46.79,46.79,0,0,0,50,73.67Z"/></svg>