<svg id="Layer_1" data-name="Layer 1" xmlns="http://www.w3.org/2000/svg" viewBox="0 0 200 200"><defs><style>.cls-1{fill:#18b3e1;}.cls-2{fill:#fff;}</style></defs><title>fin-01</title><path class="cls-1" d="M18.74,176.32c.77-2.94,1.33-5.18,2-7.42,2.77-10.11,5.5-20.25,8.41-30.33a8.93,8.93,0,0,0-.81-7C16.87,108.66,16,85.32,26.43,61.82c13.29-30,43.74-48.56,76.54-47.66,35.75,1,66.85,26.1,75.49,60,6.62,26,1.47,49.88-15.34,71a78.27,78.27,0,0,1-38.89,26.57c-20.36,6.27-40.18,4.65-59.36-4.41a10,10,0,0,0-7.42-.74c-11.62,3.16-23.3,6.13-35,9.14C21.49,175.94,20.49,176.05,18.74,176.32Z"/><path class="cls-2" d="M141.93,119h0c-.07.4-.16.81-.27,1.22a12.57,12.57,0,0,1-1.85,4c-2.29,3.27-6.18,5.37-11.56,6.22-25.83,4.14-71-37.12-70.38-59.81C58,65.19,59.29,61,62.15,58.22a12.72,12.72,0,0,1,3.68-2.47c.39-.18.77-.33,1.16-.47h0a19.26,19.26,0,0,1,6.73-1,3.61,3.61,0,0,1,3.13,2l8.84,17.89a2.4,2.4,0,0,1,.11.23,3.51,3.51,0,0,1-1.08,4l-4.1,3.41-.34.28a4.4,4.4,0,0,0-.59.63,3.64,3.64,0,0,0-.2,4c1.55,2.55,5.11,6.92,13.21,13.7h0l.2.16.31.27c8,6.9,12.88,9.71,15.66,10.83a3.6,3.6,0,0,0,3.91-.84,3.9,3.9,0,0,0,.52-.69l.22-.38,2.71-4.6a3.53,3.53,0,0,1,3.79-1.71l.25.06,19.08,5.84a3.58,3.58,0,0,1,2.47,2.77A18.89,18.89,0,0,1,141.93,119Z"/></svg>