<svg id="Layer_1" data-name="Layer 1" xmlns="http://www.w3.org/2000/svg" viewBox="0 0 200 200"><defs><style>.cls-1{fill:none;stroke:#000;stroke-miterlimit:10;stroke-width:4px;}.cls-2{fill:#18b3e1;}</style></defs><title>fin</title><path class="cls-1" d="M22.87,174c.77-2.94,1.33-5.18,1.95-7.42,2.77-10.11,5.5-20.25,8.41-30.33a8.92,8.92,0,0,0-.81-7C21,106.34,20.16,83,30.56,59.5c13.29-30,43.74-48.56,76.54-47.66,35.75,1,66.85,26.1,75.49,60,6.62,26,1.47,49.88-15.34,71a78.33,78.33,0,0,1-38.89,26.57C108,175.68,88.18,174.06,69,165a10,10,0,0,0-7.42-.74c-11.62,3.16-23.3,6.13-35,9.14C25.62,173.62,24.62,173.73,22.87,174Z"/><path class="cls-2" d="M146.06,116.68h0c-.07.4-.16.81-.27,1.22a12.81,12.81,0,0,1-1.85,4c-2.29,3.27-6.18,5.37-11.56,6.22C106.55,132.26,61.38,91,62,68.31c.14-5.44,1.42-9.62,4.28-12.41a12.53,12.53,0,0,1,3.68-2.47c.39-.18.77-.33,1.16-.47h0a19.12,19.12,0,0,1,6.73-1,3.6,3.6,0,0,1,3.13,2l8.84,17.89a2.4,2.4,0,0,1,.11.23,3.52,3.52,0,0,1-1.08,4l-4.1,3.41-.34.28a3.87,3.87,0,0,0-.59.63,3.62,3.62,0,0,0-.2,4c1.55,2.55,5.11,6.92,13.21,13.7l0,0,.2.16.31.27c8,6.9,12.88,9.71,15.66,10.83a3.61,3.61,0,0,0,3.91-.84,4.45,4.45,0,0,0,.52-.69l.22-.38,2.71-4.6a3.51,3.51,0,0,1,3.79-1.71l.25.06,19.08,5.84a3.59,3.59,0,0,1,2.47,2.77A19,19,0,0,1,146.06,116.68Z"/></svg>