<svg id="Layer_1" data-name="Layer 1" xmlns="http://www.w3.org/2000/svg" viewBox="0 0 249.38 42.25"><defs><style>.cls-1{fill:#2ec6f3;}.cls-2{fill:none;stroke:#2ec6f3;stroke-linecap:round;stroke-linejoin:round;stroke-width:2.89px;}.cls-3{font-size:22px;fill:#fff;font-family:Heebo-ExtraBold, Heebo;font-weight:800;}.cls-4{font-family:Heebo-Medium, Heebo;font-weight:500;}.cls-5{font-family:Heebo-Regular, Heebo;font-weight:400;}</style></defs><title>StarBarAndStarBig</title><path class="cls-1" d="M249.38,20.27A20.21,20.21,0,0,1,229.24,40.4H39.78a5.51,5.51,0,0,0,.44-3.3l-1.67-9.75,7.08-6.9a5.58,5.58,0,0,0-3.09-9.52L32.75,9.5,28.37.64a4.16,4.16,0,0,0-.28-.51H229.24A20.2,20.2,0,0,1,249.38,20.27Z"/><path class="cls-2" d="M24.06,2.75l4.52,9.15a2.4,2.4,0,0,0,1.84,1.34l10.1,1.47a2.36,2.36,0,0,1,1.3,4l-7.3,7.12A2.46,2.46,0,0,0,33.81,28l1.73,10a2.35,2.35,0,0,1-1.91,2.72,2.32,2.32,0,0,1-1.51-.24l-9-4.74a2.42,2.42,0,0,0-2.28,0l-9,4.74a2.36,2.36,0,0,1-3.18-1,2.33,2.33,0,0,1-.23-1.49l1.73-10a2.49,2.49,0,0,0-.71-2.17l-7.3-7.12a2.34,2.34,0,0,1,0-3.32,2.28,2.28,0,0,1,1.33-.68l10.1-1.47a2.43,2.43,0,0,0,1.78-1.39l4.51-9.15A2.34,2.34,0,0,1,23,1.7,2.29,2.29,0,0,1,24.06,2.75Z"/><text class="cls-3" transform="translate(62.61 27.05)">Add<tspan class="cls-4" x="39.67" y="0"> </tspan><tspan class="cls-5" x="45.15" y="0">to Wish List</tspan></text></svg>