<svg id="Layer_2" data-name="Layer 2" xmlns="http://www.w3.org/2000/svg" viewBox="0 0 44.05 42.26"><defs><style>.cls-1{fill:#2ec6f3;stroke:#2ec6f3;stroke-linecap:round;stroke-linejoin:round;stroke-width:2.89px;}</style></defs><title>Star</title><path class="cls-1" d="M24.13,2.75l4.52,9.15a2.4,2.4,0,0,0,1.84,1.34l10.1,1.47a2.35,2.35,0,0,1,1.3,4l-7.3,7.12A2.48,2.48,0,0,0,33.88,28l1.73,10.05a2.35,2.35,0,0,1-3.42,2.48l-9-4.74a2.42,2.42,0,0,0-2.28,0l-9,4.74a2.35,2.35,0,0,1-3.41-2.48l1.73-10a2.48,2.48,0,0,0-.71-2.17l-7.3-7.12a2.35,2.35,0,0,1,1.3-4l10.1-1.47A2.43,2.43,0,0,0,15.4,11.9l4.51-9.15A2.36,2.36,0,0,1,24.13,2.75Z"/></svg>