<svg id="Layer_1" data-name="Layer 1" xmlns="http://www.w3.org/2000/svg" viewBox="0 0 247.93 40.68"><defs><style>.cls-1{fill:#2ec6f3;}.cls-2{font-size:22px;fill:#fff;font-family:Heebo-ExtraBold, Heebo;font-weight:800;}.cls-3{font-family:Heebo-Medium, Heebo;font-weight:500;}.cls-4{font-family:Heebo-Regular, Heebo;font-weight:400;}</style></defs><title>StarBarAndStarBig</title><path class="cls-1" d="M247.93,20.14a20.19,20.19,0,0,1-20.14,20.13H38.33a5.44,5.44,0,0,0,.44-3.3L37.1,27.22l7.08-6.9a5.58,5.58,0,0,0-3.09-9.52L31.3,9.37,26.92.51A3.15,3.15,0,0,0,26.64,0H227.79A20.2,20.2,0,0,1,247.93,20.14Z"/><path class="cls-1" d="M22.61,2.62l4.52,9.15A2.4,2.4,0,0,0,29,13.11l10.1,1.47a2.35,2.35,0,0,1,1.3,4l-7.3,7.12a2.51,2.51,0,0,0-.71,2.17l1.73,10.05a2.35,2.35,0,0,1-3.42,2.48l-9-4.74a2.42,2.42,0,0,0-2.28,0l-9,4.74A2.35,2.35,0,0,1,7,37.92l1.73-10A2.48,2.48,0,0,0,8,25.75L.7,18.63a2.35,2.35,0,0,1,1.3-4l10.1-1.47a2.41,2.41,0,0,0,1.78-1.39l4.51-9.15a2.36,2.36,0,0,1,4.22,0Z"/><text class="cls-2" transform="translate(62.61 27.05)">Add<tspan class="cls-3" x="39.67" y="0"> </tspan><tspan class="cls-4" x="45.15" y="0">to Wish List</tspan></text></svg>