<svg id="Layer_1" data-name="Layer 1" xmlns="http://www.w3.org/2000/svg" viewBox="0 0 124.67 21.06"><defs><style>.cls-1,.cls-2{fill:#2ec6f3;}.cls-2{stroke:#2ec6f3;stroke-linecap:round;stroke-linejoin:round;stroke-width:1.44px;}.cls-3{font-size:11px;fill:#fff;font-family:Heebo-Bold, Heebo;font-weight:700;}</style></defs><title>StarBarAndStarSmallOff</title><path class="cls-1" d="M124.67,10.08a10,10,0,0,1-10,10H20.25a2.77,2.77,0,0,0,.18-1.58l-.83-4.86,3.53-3.44a2.79,2.79,0,0,0-1.5-4.74l-4.88-.71L14.57.33,14.43.08H114.64A10.06,10.06,0,0,1,124.67,10.08Z"/><path class="cls-2" d="M12,1.35l2.25,4.56a1.23,1.23,0,0,0,.92.67l5,.73a1.17,1.17,0,0,1,.65,2l-3.64,3.54a1.21,1.21,0,0,0-.3,1.13l.86,5a1.18,1.18,0,0,1-1,1.35,1.15,1.15,0,0,1-.77-.15l-4.5-2.37a1.27,1.27,0,0,0-1.14,0L5.92,20.18A1.17,1.17,0,0,1,4.22,19l.85-5a1.24,1.24,0,0,0-.35-1.08L1.08,9.31a1.16,1.16,0,0,1,0-1.65,1.18,1.18,0,0,1,.68-.35l5-.73a1.25,1.25,0,0,0,.92-.67L9.93,1.35A1.16,1.16,0,0,1,11.5.85,1.17,1.17,0,0,1,12,1.35Z"/><text class="cls-3" transform="translate(40.26 14.31)">DETAILS</text></svg>